<svg width="325" height="100" viewBox="0 0 325 100" fill="none" xmlns="http://www.w3.org/2000/svg">
<rect width="325" height="100" rx="3" fill="#FF862A"/>
<path opacity="0.7" d="M20.736 48.528L28.08 60.408L35.424 48.528H55.08L38.736 72.576L56.592 99H36.576L28.08 85.968L19.728 99H0.216L17.928 73.368L1.296 48.528H20.736ZM59.8703 48.6H76.5742V74.808L93.9263 48.6H109.91V99H93.2063V72.864L75.9263 99H59.8703V48.6ZM161.774 61.776H147.014V99H130.31V61.776H115.55V48.6H161.774V61.776Z" fill="white"/>
<mask id="mask0" mask-type="alpha" maskUnits="userSpaceOnUse" x="0" y="0" width="325" height="100">
<rect x="0.5" y="0.5" width="324" height="99" rx="2.5" fill="#F99B10" stroke="black"/>
</mask>
<g mask="url(#mask0)">
<path d="M165.24 72.072H186.84V84.312H165.24V72.072ZM241.031 90.36H234.335V99H217.847V90.36H191.711V79.56L213.095 48.6H230.519L211.511 77.184H218.351V69.48H234.335V77.184H241.031V90.36ZM266.225 100.152C261.761 100.152 257.801 99.12 254.345 97.056C250.937 94.944 248.249 91.92 246.281 87.984C244.361 84 243.401 79.272 243.401 73.8C243.401 68.328 244.361 63.624 246.281 59.688C248.249 55.704 250.937 52.68 254.345 50.616C257.801 48.504 261.761 47.448 266.225 47.448C270.689 47.448 274.625 48.504 278.033 50.616C281.489 52.68 284.177 55.704 286.097 59.688C288.065 63.624 289.049 68.328 289.049 73.8C289.049 79.272 288.065 84 286.097 87.984C284.177 91.92 281.489 94.944 278.033 97.056C274.625 99.12 270.689 100.152 266.225 100.152ZM266.225 86.544C270.065 86.544 271.985 82.296 271.985 73.8C271.985 65.304 270.065 61.056 266.225 61.056C262.385 61.056 260.465 65.304 260.465 73.8C260.465 82.296 262.385 86.544 266.225 86.544ZM305.708 75.96C301.772 75.96 298.556 74.712 296.06 72.216C293.564 69.72 292.316 66.288 292.316 61.92C292.316 58.992 292.892 56.472 294.044 54.36C295.196 52.248 296.78 50.64 298.796 49.536C300.86 48.432 303.164 47.88 305.708 47.88C308.252 47.88 310.532 48.432 312.548 49.536C314.612 50.64 316.22 52.248 317.372 54.36C318.524 56.472 319.1 58.992 319.1 61.92C319.1 66.288 317.852 69.72 315.356 72.216C312.86 74.712 309.644 75.96 305.708 75.96ZM335.3 48.6H347.468L313.052 99H300.884L335.3 48.6ZM305.708 68.184C306.62 68.184 307.364 67.704 307.94 66.744C308.564 65.736 308.876 64.128 308.876 61.92C308.876 59.712 308.564 58.128 307.94 57.168C307.364 56.16 306.62 55.656 305.708 55.656C304.796 55.656 304.028 56.16 303.404 57.168C302.828 58.128 302.54 59.712 302.54 61.92C302.54 64.128 302.828 65.736 303.404 66.744C304.028 67.704 304.796 68.184 305.708 68.184ZM342.644 99.72C338.708 99.72 335.492 98.472 332.996 95.976C330.5 93.48 329.252 90.048 329.252 85.68C329.252 82.752 329.828 80.232 330.98 78.12C332.132 76.008 333.716 74.4 335.732 73.296C337.796 72.192 340.1 71.64 342.644 71.64C345.188 71.64 347.468 72.192 349.484 73.296C351.548 74.4 353.156 76.008 354.308 78.12C355.46 80.232 356.036 82.752 356.036 85.68C356.036 90.048 354.788 93.48 352.292 95.976C349.796 98.472 346.58 99.72 342.644 99.72ZM342.644 91.944C343.556 91.944 344.3 91.464 344.876 90.504C345.5 89.496 345.812 87.888 345.812 85.68C345.812 83.472 345.5 81.888 344.876 80.928C344.3 79.92 343.556 79.416 342.644 79.416C341.732 79.416 340.964 79.92 340.34 80.928C339.764 81.888 339.476 83.472 339.476 85.68C339.476 87.888 339.764 89.496 340.34 90.504C340.964 91.464 341.732 91.944 342.644 91.944Z" fill="#FF9A4E"/>
</g>
</svg>
