<svg width="325" height="100" viewBox="0 0 325 100" fill="none" xmlns="http://www.w3.org/2000/svg">
<rect width="325" height="100" rx="3" fill="#FF862A"/>
<mask id="mask0" mask-type="alpha" maskUnits="userSpaceOnUse" x="0" y="0" width="325" height="100">
<rect x="0.5" y="0.5" width="324" height="99" rx="2.5" fill="#FF862A" stroke="#9497A1"/>
</mask>
<g mask="url(#mask0)">
<circle cx="258.5" cy="12.5" r="28.5" fill="#FF9A4E"/>
<circle cx="301" cy="69" r="11" fill="#FF9A4E"/>
<circle cx="31.5" cy="44.5" r="24.5" fill="#FF9A4E"/>
<circle cx="171" cy="94" r="69" fill="#FF9A4E"/>
</g>
<path d="M20.16 31.048H34.56V39.208H20.16V31.048ZM51.8231 27.256C56.5271 27.256 59.9831 28.248 62.1911 30.232C64.4311 32.184 65.5511 34.76 65.5511 37.96C65.5511 40.072 64.9911 42.024 63.8711 43.816C62.7831 45.576 61.0871 47.016 58.7831 48.136C56.4791 49.224 53.6151 49.768 50.1911 49.768C47.8231 49.768 45.4551 49.512 43.0871 49C40.7511 48.488 38.7031 47.736 36.9431 46.744L40.7831 38.392C42.1911 39.192 43.6631 39.8 45.1991 40.216C46.7671 40.632 48.2871 40.84 49.7591 40.84C51.0711 40.84 52.1271 40.616 52.9271 40.168C53.7591 39.688 54.1751 39.032 54.1751 38.2C54.1751 37.4 53.8071 36.808 53.0711 36.424C52.3351 36.008 51.0071 35.8 49.0871 35.8H39.3431L41.0231 15.4H63.3431V23.944H50.3351L50.0951 27.256H51.8231ZM75.6491 33.64C73.0251 33.64 70.8811 32.808 69.2171 31.144C67.5531 29.48 66.7211 27.192 66.7211 24.28C66.7211 22.328 67.1051 20.648 67.8731 19.24C68.6411 17.832 69.6971 16.76 71.0411 16.024C72.4171 15.288 73.9531 14.92 75.6491 14.92C77.3451 14.92 78.8651 15.288 80.2091 16.024C81.5851 16.76 82.6571 17.832 83.4251 19.24C84.1931 20.648 84.5771 22.328 84.5771 24.28C84.5771 27.192 83.7451 29.48 82.0811 31.144C80.4171 32.808 78.2731 33.64 75.6491 33.64ZM95.3771 15.4H103.489L80.5451 49H72.4331L95.3771 15.4ZM75.6491 28.456C76.2571 28.456 76.7531 28.136 77.1371 27.496C77.5531 26.824 77.7611 25.752 77.7611 24.28C77.7611 22.808 77.5531 21.752 77.1371 21.112C76.7531 20.44 76.2571 20.104 75.6491 20.104C75.0411 20.104 74.5291 20.44 74.1131 21.112C73.7291 21.752 73.5371 22.808 73.5371 24.28C73.5371 25.752 73.7291 26.824 74.1131 27.496C74.5291 28.136 75.0411 28.456 75.6491 28.456ZM100.273 49.48C97.6491 49.48 95.5051 48.648 93.8411 46.984C92.1771 45.32 91.3451 43.032 91.3451 40.12C91.3451 38.168 91.7291 36.488 92.4971 35.08C93.2651 33.672 94.3211 32.6 95.6651 31.864C97.0411 31.128 98.5771 30.76 100.273 30.76C101.969 30.76 103.489 31.128 104.833 31.864C106.209 32.6 107.281 33.672 108.049 35.08C108.817 36.488 109.201 38.168 109.201 40.12C109.201 43.032 108.369 45.32 106.705 46.984C105.041 48.648 102.897 49.48 100.273 49.48ZM100.273 44.296C100.881 44.296 101.377 43.976 101.761 43.336C102.177 42.664 102.385 41.592 102.385 40.12C102.385 38.648 102.177 37.592 101.761 36.952C101.377 36.28 100.881 35.944 100.273 35.944C99.6651 35.944 99.1531 36.28 98.7371 36.952C98.3531 37.592 98.1611 38.648 98.1611 40.12C98.1611 41.592 98.3531 42.664 98.7371 43.336C99.1531 43.976 99.6651 44.296 100.273 44.296Z" fill="white" fill-opacity="0.7"/>
<path d="M66.16 72.048H80.56V80.208H66.16V72.048ZM98.8124 56.4V90H87.4844V64.944H81.7244V56.4H98.8124ZM118.155 90.768C115.179 90.768 112.539 90.08 110.235 88.704C107.963 87.296 106.171 85.28 104.859 82.656C103.579 80 102.939 76.848 102.939 73.2C102.939 69.552 103.579 66.416 104.859 63.792C106.171 61.136 107.963 59.12 110.235 57.744C112.539 56.336 115.179 55.632 118.155 55.632C121.131 55.632 123.755 56.336 126.027 57.744C128.331 59.12 130.123 61.136 131.403 63.792C132.715 66.416 133.371 69.552 133.371 73.2C133.371 76.848 132.715 80 131.403 82.656C130.123 85.28 128.331 87.296 126.027 88.704C123.755 90.08 121.131 90.768 118.155 90.768ZM118.155 81.696C120.715 81.696 121.995 78.864 121.995 73.2C121.995 67.536 120.715 64.704 118.155 64.704C115.595 64.704 114.315 67.536 114.315 73.2C114.315 78.864 115.595 81.696 118.155 81.696ZM144.477 74.64C141.853 74.64 139.709 73.808 138.045 72.144C136.381 70.48 135.549 68.192 135.549 65.28C135.549 63.328 135.933 61.648 136.701 60.24C137.469 58.832 138.525 57.76 139.869 57.024C141.245 56.288 142.781 55.92 144.477 55.92C146.173 55.92 147.693 56.288 149.037 57.024C150.413 57.76 151.485 58.832 152.253 60.24C153.021 61.648 153.405 63.328 153.405 65.28C153.405 68.192 152.573 70.48 150.909 72.144C149.245 73.808 147.101 74.64 144.477 74.64ZM164.205 56.4H172.317L149.373 90H141.261L164.205 56.4ZM144.477 69.456C145.085 69.456 145.581 69.136 145.965 68.496C146.381 67.824 146.589 66.752 146.589 65.28C146.589 63.808 146.381 62.752 145.965 62.112C145.581 61.44 145.085 61.104 144.477 61.104C143.869 61.104 143.357 61.44 142.941 62.112C142.557 62.752 142.365 63.808 142.365 65.28C142.365 66.752 142.557 67.824 142.941 68.496C143.357 69.136 143.869 69.456 144.477 69.456ZM169.101 90.48C166.477 90.48 164.333 89.648 162.669 87.984C161.005 86.32 160.173 84.032 160.173 81.12C160.173 79.168 160.557 77.488 161.325 76.08C162.093 74.672 163.149 73.6 164.493 72.864C165.869 72.128 167.405 71.76 169.101 71.76C170.797 71.76 172.317 72.128 173.661 72.864C175.037 73.6 176.109 74.672 176.877 76.08C177.645 77.488 178.029 79.168 178.029 81.12C178.029 84.032 177.197 86.32 175.533 87.984C173.869 89.648 171.725 90.48 169.101 90.48ZM169.101 85.296C169.709 85.296 170.205 84.976 170.589 84.336C171.005 83.664 171.213 82.592 171.213 81.12C171.213 79.648 171.005 78.592 170.589 77.952C170.205 77.28 169.709 76.944 169.101 76.944C168.493 76.944 167.981 77.28 167.565 77.952C167.181 78.592 166.989 79.648 166.989 81.12C166.989 82.592 167.181 83.664 167.565 84.336C167.981 84.976 168.493 85.296 169.101 85.296Z" fill="white" fill-opacity="0.7"/>
</svg>
