<svg width="325" height="100" viewBox="0 0 325 100" fill="none" xmlns="http://www.w3.org/2000/svg">
<rect width="325" height="100" rx="3" fill="#FF862A"/>
<path opacity="0.7" d="M36.224 34.36L41.192 43H34.808L31.592 36.928H30.008V43H24.344V26.2H30.008V32.464H31.736L35.312 26.2H41.216L36.224 34.36ZM56.4946 29.872L51.0946 43.264C50.4066 44.976 49.5506 46.176 48.5266 46.864C47.5026 47.552 46.2466 47.896 44.7586 47.896C44.0226 47.896 43.2786 47.784 42.5266 47.56C41.7906 47.352 41.2066 47.072 40.7746 46.72L42.5746 43C42.8466 43.208 43.1506 43.376 43.4866 43.504C43.8386 43.632 44.1746 43.696 44.4946 43.696C45.0866 43.696 45.5346 43.52 45.8386 43.168L40.3186 29.872H45.8866L48.5986 36.904L51.3586 29.872H56.4946ZM71.7819 29.872V43H66.3819V34.096H63.0939V43H57.6939V29.872H71.7819ZM81.1025 43.24C79.6465 43.24 78.3345 42.952 77.1665 42.376C76.0145 41.784 75.1105 40.976 74.4545 39.952C73.7985 38.912 73.4705 37.736 73.4705 36.424C73.4705 35.112 73.7985 33.944 74.4545 32.92C75.1105 31.88 76.0145 31.072 77.1665 30.496C78.3345 29.92 79.6465 29.632 81.1025 29.632C82.5745 29.632 83.8865 29.92 85.0385 30.496C86.2065 31.072 87.1105 31.88 87.7505 32.92C88.4065 33.944 88.7345 35.112 88.7345 36.424C88.7345 37.736 88.4065 38.912 87.7505 39.952C87.1105 40.976 86.2065 41.784 85.0385 42.376C83.8865 42.952 82.5745 43.24 81.1025 43.24ZM81.1025 39.016C81.7265 39.016 82.2385 38.792 82.6385 38.344C83.0385 37.88 83.2385 37.24 83.2385 36.424C83.2385 35.608 83.0385 34.976 82.6385 34.528C82.2385 34.08 81.7265 33.856 81.1025 33.856C80.4785 33.856 79.9665 34.08 79.5665 34.528C79.1665 34.976 78.9665 35.608 78.9665 36.424C78.9665 37.24 79.1665 37.88 79.5665 38.344C79.9665 38.792 80.4785 39.016 81.1025 39.016ZM90.4126 29.872H95.8126V34.48H99.5086V29.872H104.909V43H99.5086V38.728H95.8126V43H90.4126V29.872ZM114.647 29.872H120.047V34.48H123.743V29.872H129.143V43H123.743V38.728H120.047V43H114.647V29.872ZM137.278 29.632C139.582 29.632 141.342 30.152 142.558 31.192C143.774 32.216 144.382 33.8 144.382 35.944V43H139.342V41.272C138.718 42.584 137.478 43.24 135.622 43.24C134.582 43.24 133.694 43.064 132.958 42.712C132.238 42.344 131.686 41.856 131.302 41.248C130.934 40.624 130.75 39.928 130.75 39.16C130.75 37.864 131.246 36.88 132.238 36.208C133.23 35.536 134.734 35.2 136.75 35.2H138.934C138.758 34.176 137.934 33.664 136.462 33.664C135.87 33.664 135.27 33.76 134.662 33.952C134.054 34.128 133.534 34.376 133.102 34.696L131.374 31.12C132.126 30.656 133.03 30.296 134.086 30.04C135.158 29.768 136.222 29.632 137.278 29.632ZM137.254 39.976C137.638 39.976 137.982 39.872 138.286 39.664C138.59 39.456 138.814 39.144 138.958 38.728V37.816H137.614C136.51 37.816 135.958 38.184 135.958 38.92C135.958 39.224 136.07 39.48 136.294 39.688C136.534 39.88 136.854 39.976 137.254 39.976ZM33.032 59.632C34.184 59.632 35.24 59.912 36.2 60.472C37.176 61.016 37.944 61.808 38.504 62.848C39.08 63.888 39.368 65.088 39.368 66.448C39.368 67.808 39.08 69.008 38.504 70.048C37.944 71.072 37.176 71.864 36.2 72.424C35.24 72.968 34.184 73.24 33.032 73.24C31.576 73.24 30.464 72.864 29.696 72.112V77.656H24.272V59.872H29.432V60.952C30.216 60.072 31.416 59.632 33.032 59.632ZM31.736 69.016C32.36 69.016 32.872 68.792 33.272 68.344C33.672 67.896 33.872 67.264 33.872 66.448C33.872 65.632 33.672 65 33.272 64.552C32.872 64.088 32.36 63.856 31.736 63.856C31.112 63.856 30.6 64.088 30.2 64.552C29.8 65 29.6 65.632 29.6 66.448C29.6 67.264 29.8 67.896 30.2 68.344C30.6 68.792 31.112 69.016 31.736 69.016ZM54.9236 66.424C54.9236 66.504 54.8996 66.928 54.8516 67.696H45.7316C45.9236 68.192 46.2436 68.576 46.6916 68.848C47.1396 69.104 47.6996 69.232 48.3716 69.232C48.9476 69.232 49.4276 69.16 49.8116 69.016C50.2116 68.872 50.6436 68.624 51.1076 68.272L53.9396 71.128C52.6596 72.536 50.7476 73.24 48.2036 73.24C46.6196 73.24 45.2276 72.952 44.0276 72.376C42.8276 71.784 41.8996 70.968 41.2436 69.928C40.5876 68.888 40.2596 67.72 40.2596 66.424C40.2596 65.112 40.5796 63.944 41.2196 62.92C41.8756 61.88 42.7636 61.072 43.8836 60.496C45.0196 59.92 46.2916 59.632 47.6996 59.632C49.0276 59.632 50.2356 59.896 51.3236 60.424C52.4276 60.952 53.2996 61.728 53.9396 62.752C54.5956 63.776 54.9236 65 54.9236 66.424ZM47.7476 63.328C47.1876 63.328 46.7236 63.48 46.3556 63.784C45.9876 64.088 45.7476 64.52 45.6356 65.08H49.8596C49.7476 64.536 49.5076 64.112 49.1396 63.808C48.7716 63.488 48.3076 63.328 47.7476 63.328ZM69.5216 73L69.4976 67.12L66.7136 71.968H64.4336L61.7456 67V73H56.8736V59.872H62.6096L65.7296 65.992L69.2576 59.872H74.3456L74.3936 73H69.5216ZM83.6806 73.24C82.2246 73.24 80.9126 72.952 79.7446 72.376C78.5926 71.784 77.6886 70.976 77.0326 69.952C76.3766 68.912 76.0486 67.736 76.0486 66.424C76.0486 65.112 76.3766 63.944 77.0326 62.92C77.6886 61.88 78.5926 61.072 79.7446 60.496C80.9126 59.92 82.2246 59.632 83.6806 59.632C85.1526 59.632 86.4646 59.92 87.6166 60.496C88.7846 61.072 89.6886 61.88 90.3286 62.92C90.9846 63.944 91.3126 65.112 91.3126 66.424C91.3126 67.736 90.9846 68.912 90.3286 69.952C89.6886 70.976 88.7846 71.784 87.6166 72.376C86.4646 72.952 85.1526 73.24 83.6806 73.24ZM83.6806 69.016C84.3046 69.016 84.8166 68.792 85.2166 68.344C85.6166 67.88 85.8166 67.24 85.8166 66.424C85.8166 65.608 85.6166 64.976 85.2166 64.528C84.8166 64.08 84.3046 63.856 83.6806 63.856C83.0566 63.856 82.5446 64.08 82.1446 64.528C81.7446 64.976 81.5446 65.608 81.5446 66.424C81.5446 67.24 81.7446 67.88 82.1446 68.344C82.5446 68.792 83.0566 69.016 83.6806 69.016ZM92.9908 59.872H98.3908V64.48H102.087V59.872H107.487V73H102.087V68.728H98.3908V73H92.9908V59.872ZM122.462 64.096H118.454V73H113.054V64.096H109.046V59.872H122.462V64.096Z" fill="white"/>
<path opacity="0.7" d="M227 0.5V99.5" stroke="#F7F7F6" stroke-dasharray="2 2"/>
<mask id="mask0" mask-type="alpha" maskUnits="userSpaceOnUse" x="0" y="0" width="325" height="100">
<rect width="325" height="100" rx="3" fill="#FF862A"/>
</mask>
<g mask="url(#mask0)">
<path opacity="0.7" d="M275.392 53.28C270.144 53.28 265.856 51.616 262.528 48.288C259.2 44.96 257.536 40.384 257.536 34.56C257.536 30.656 258.304 27.296 259.84 24.48C261.376 21.664 263.488 19.52 266.176 18.048C268.928 16.576 272 15.84 275.392 15.84C278.784 15.84 281.824 16.576 284.512 18.048C287.264 19.52 289.408 21.664 290.944 24.48C292.48 27.296 293.248 30.656 293.248 34.56C293.248 40.384 291.584 44.96 288.256 48.288C284.928 51.616 280.64 53.28 275.392 53.28ZM314.848 16.8H331.072L285.184 84H268.96L314.848 16.8ZM275.392 42.912C276.608 42.912 277.6 42.272 278.368 40.992C279.2 39.648 279.616 37.504 279.616 34.56C279.616 31.616 279.2 29.504 278.368 28.224C277.6 26.88 276.608 26.208 275.392 26.208C274.176 26.208 273.152 26.88 272.32 28.224C271.552 29.504 271.168 31.616 271.168 34.56C271.168 37.504 271.552 39.648 272.32 40.992C273.152 42.272 274.176 42.912 275.392 42.912ZM324.64 84.96C319.392 84.96 315.104 83.296 311.776 79.968C308.448 76.64 306.784 72.064 306.784 66.24C306.784 62.336 307.552 58.976 309.088 56.16C310.624 53.344 312.736 51.2 315.424 49.728C318.176 48.256 321.248 47.52 324.64 47.52C328.032 47.52 331.072 48.256 333.76 49.728C336.512 51.2 338.656 53.344 340.192 56.16C341.728 58.976 342.496 62.336 342.496 66.24C342.496 72.064 340.832 76.64 337.504 79.968C334.176 83.296 329.888 84.96 324.64 84.96ZM324.64 74.592C325.856 74.592 326.848 73.952 327.616 72.672C328.448 71.328 328.864 69.184 328.864 66.24C328.864 63.296 328.448 61.184 327.616 59.904C326.848 58.56 325.856 57.888 324.64 57.888C323.424 57.888 322.4 58.56 321.568 59.904C320.8 61.184 320.416 63.296 320.416 66.24C320.416 69.184 320.8 71.328 321.568 72.672C322.4 73.952 323.424 74.592 324.64 74.592Z" fill="#FF9A4E"/>
</g>
</svg>
