<svg width="325" height="100" viewBox="0 0 325 100" fill="none" xmlns="http://www.w3.org/2000/svg">
<rect width="325" height="100" rx="3" fill="#FF862A"/>
<mask id="mask0" mask-type="alpha" maskUnits="userSpaceOnUse" x="0" y="0" width="325" height="100">
<rect x="0.5" y="0.5" width="324" height="99" rx="2.5" fill="#FF862A" stroke="#9497A1"/>
</mask>
<g mask="url(#mask0)">
<circle cx="187" cy="5" r="22" fill="#FF9A4E"/>
<circle cx="260" cy="64" r="47" fill="#FF9A4E"/>
</g>
<path opacity="0.7" d="M44.792 30.592H39.872V43H34.304V30.592H29.384V26.2H44.792V30.592ZM58.9314 36.424C58.9314 36.504 58.9074 36.928 58.8594 37.696H49.7394C49.9314 38.192 50.2514 38.576 50.6994 38.848C51.1474 39.104 51.7074 39.232 52.3794 39.232C52.9554 39.232 53.4354 39.16 53.8194 39.016C54.2194 38.872 54.6514 38.624 55.1154 38.272L57.9474 41.128C56.6674 42.536 54.7554 43.24 52.2114 43.24C50.6274 43.24 49.2354 42.952 48.0354 42.376C46.8354 41.784 45.9074 40.968 45.2514 39.928C44.5954 38.888 44.2674 37.72 44.2674 36.424C44.2674 35.112 44.5874 33.944 45.2274 32.92C45.8834 31.88 46.7714 31.072 47.8914 30.496C49.0274 29.92 50.2994 29.632 51.7074 29.632C53.0354 29.632 54.2434 29.896 55.3314 30.424C56.4354 30.952 57.3074 31.728 57.9474 32.752C58.6034 33.776 58.9314 35 58.9314 36.424ZM51.7554 33.328C51.1954 33.328 50.7314 33.48 50.3634 33.784C49.9954 34.088 49.7554 34.52 49.6434 35.08H53.8674C53.7554 34.536 53.5154 34.112 53.1474 33.808C52.7794 33.488 52.3154 33.328 51.7554 33.328ZM74.9694 29.872V43H69.5694V34.096H66.2814V43H60.8814V29.872H74.9694ZM91.682 29.872V43H86.258V34.096H83.786L83.714 35.8C83.65 37.496 83.474 38.888 83.186 39.976C82.898 41.064 82.418 41.904 81.746 42.496C81.09 43.072 80.186 43.36 79.034 43.36C78.314 43.36 77.474 43.24 76.514 43L76.73 38.608C76.986 38.64 77.17 38.656 77.282 38.656C77.938 38.656 78.37 38.424 78.578 37.96C78.786 37.48 78.914 36.688 78.962 35.584L79.154 29.872H91.682ZM102.345 33.832C104.089 33.832 105.393 34.216 106.257 34.984C107.137 35.736 107.577 36.824 107.577 38.248C107.577 39.736 107.065 40.904 106.041 41.752C105.017 42.584 103.561 43 101.673 43H94.2329V29.872H99.6329V33.832H102.345ZM108.369 29.872H113.769V43H108.369V29.872ZM101.121 39.352C101.905 39.352 102.297 38.952 102.297 38.152C102.297 37.384 101.905 37 101.121 37H99.6329V39.352H101.121ZM116.311 29.872H121.711V35.8L126.247 29.872H131.239V43H125.839V37.048L121.327 43H116.311V29.872ZM123.415 28.792C121.751 28.792 120.535 28.456 119.767 27.784C118.999 27.096 118.615 26.032 118.615 24.592H122.095C122.095 25.12 122.183 25.52 122.359 25.792C122.551 26.048 122.895 26.176 123.391 26.176C124.287 26.176 124.735 25.648 124.735 24.592H128.263C128.263 26.032 127.871 27.096 127.087 27.784C126.319 28.456 125.095 28.792 123.415 28.792ZM42.92 73L42.896 67.12L40.112 71.968H37.832L35.144 67V73H30.272V59.872H36.008L39.128 65.992L42.656 59.872H47.744L47.792 73H42.92ZM57.0791 73.24C55.6231 73.24 54.3111 72.952 53.1431 72.376C51.9911 71.784 51.0871 70.976 50.4311 69.952C49.7751 68.912 49.4471 67.736 49.4471 66.424C49.4471 65.112 49.7751 63.944 50.4311 62.92C51.0871 61.88 51.9911 61.072 53.1431 60.496C54.3111 59.92 55.6231 59.632 57.0791 59.632C58.5511 59.632 59.8631 59.92 61.0151 60.496C62.1831 61.072 63.0871 61.88 63.7271 62.92C64.3831 63.944 64.7111 65.112 64.7111 66.424C64.7111 67.736 64.3831 68.912 63.7271 69.952C63.0871 70.976 62.1831 71.784 61.0151 72.376C59.8631 72.952 58.5511 73.24 57.0791 73.24ZM57.0791 69.016C57.7031 69.016 58.2151 68.792 58.6151 68.344C59.0151 67.88 59.2151 67.24 59.2151 66.424C59.2151 65.608 59.0151 64.976 58.6151 64.528C58.2151 64.08 57.7031 63.856 57.0791 63.856C56.4551 63.856 55.9431 64.08 55.5431 64.528C55.1431 64.976 54.9431 65.608 54.9431 66.424C54.9431 67.24 55.1431 67.88 55.5431 68.344C55.9431 68.792 56.4551 69.016 57.0791 69.016ZM66.3892 59.872H71.7892V64.48H75.4852V59.872H80.8852V73H75.4852V68.728H71.7892V73H66.3892V59.872ZM95.8603 64.096H91.8523V73H86.4523V64.096H82.4443V59.872H95.8603V64.096ZM103.012 59.632C105.316 59.632 107.076 60.152 108.292 61.192C109.508 62.216 110.116 63.8 110.116 65.944V73H105.076V71.272C104.452 72.584 103.212 73.24 101.356 73.24C100.316 73.24 99.4284 73.064 98.6924 72.712C97.9724 72.344 97.4204 71.856 97.0364 71.248C96.6684 70.624 96.4844 69.928 96.4844 69.16C96.4844 67.864 96.9804 66.88 97.9724 66.208C98.9644 65.536 100.468 65.2 102.484 65.2H104.668C104.492 64.176 103.668 63.664 102.196 63.664C101.604 63.664 101.004 63.76 100.396 63.952C99.7884 64.128 99.2684 64.376 98.8364 64.696L97.1084 61.12C97.8604 60.656 98.7644 60.296 99.8204 60.04C100.892 59.768 101.956 59.632 103.012 59.632ZM102.988 69.976C103.372 69.976 103.716 69.872 104.02 69.664C104.324 69.456 104.548 69.144 104.692 68.728V67.816H103.348C102.244 67.816 101.692 68.184 101.692 68.92C101.692 69.224 101.804 69.48 102.028 69.688C102.268 69.88 102.588 69.976 102.988 69.976ZM126.439 68.632H125.623V73H120.271V68.632H119.407L117.415 73H111.031L114.799 66.232L111.295 59.872H117.007L119.287 64.48H120.271V59.872H125.623V64.48H126.559L128.863 59.872H134.575L131.071 66.232L134.839 73H128.431L126.439 68.632Z" fill="white"/>
</svg>
