<svg width="339" height="390" viewBox="0 0 339 390" fill="none" xmlns="http://www.w3.org/2000/svg">
<path d="M66.6323 164.825C64.9068 160.656 64.4065 156.811 65.1312 153.29C65.8192 149.681 67.2138 145.519 69.3149 140.805C70.6514 137.759 71.5322 135.368 71.9572 133.634C72.471 131.863 72.4158 130.223 71.7917 128.715C70.9841 126.764 69.5173 125.605 67.3914 125.238C65.2288 124.782 62.8613 125.087 60.2889 126.151C57.4504 127.326 55.138 129.27 53.3519 131.983C51.529 134.608 50.4769 137.589 50.1957 140.926L21.611 138.886C22.3691 130.676 25.4182 123.232 30.7585 116.555C36.1875 109.84 44.0024 104.372 54.2033 100.15C65.0251 95.6714 74.7245 94.2545 83.3015 95.8996C91.8785 97.5447 97.8374 102.403 101.178 110.475C102.72 114.201 103.413 117.758 103.257 121.147C103.153 124.411 102.618 127.386 101.652 130.072C100.649 132.669 99.2496 135.689 97.4543 139.134C95.6437 142.792 94.4296 145.632 93.8118 147.654C93.1941 149.676 93.2707 151.618 94.0416 153.481L66.6323 164.825ZM95.6456 196.142C90.5008 198.272 85.645 198.463 81.078 196.717C76.5111 194.97 73.3099 191.88 71.4743 187.445C69.602 182.921 69.7011 178.516 71.7717 174.23C73.8055 169.856 77.3948 166.605 82.5396 164.475C87.6844 162.346 92.5219 162.11 97.0521 163.768C101.546 165.337 104.729 168.383 106.601 172.907C108.436 177.342 108.356 181.791 106.358 186.254C104.361 190.717 100.79 194.013 95.6456 196.142Z" fill="#3A9A1A"/>
<path d="M131.455 201.78C136.375 194.215 142.148 189.037 148.773 186.246C155.502 183.293 163.943 180.881 174.093 179.008C180.629 177.762 185.567 176.507 188.908 175.245C192.41 174.086 195.05 172.139 196.83 169.403C199.133 165.862 199.383 162.131 197.581 158.211C195.884 154.13 192.701 150.571 188.034 147.535C182.883 144.186 177.06 142.575 170.564 142.702C164.173 142.668 158.068 144.308 152.247 147.623L123.247 98.1867C137.641 90.1412 153.365 86.7404 170.421 87.9842C187.638 89.3327 205.501 96.0259 224.011 108.064C243.647 120.835 256.965 135.222 263.964 151.225C270.962 167.228 269.699 182.553 260.173 197.2C255.777 203.96 250.696 209.13 244.932 212.711C239.434 216.235 233.924 218.721 228.402 220.168C222.984 221.455 216.42 222.568 208.709 223.508C200.627 224.665 194.57 225.879 190.537 227.149C186.504 228.42 183.389 230.746 181.19 234.126L131.455 201.78ZM112.672 285.071C103.337 279 97.5233 271.211 95.2317 261.704C92.9401 252.198 94.4112 243.421 99.6451 235.373C104.984 227.164 112.358 222.341 121.768 220.902C131.282 219.303 140.707 221.539 150.042 227.61C159.378 233.681 165.243 241.39 167.64 250.735C170.141 259.92 168.722 268.617 163.383 276.825C158.149 284.873 150.723 289.777 141.104 291.538C131.485 293.298 122.008 291.142 112.672 285.071Z" fill="#3A9A1A"/>
</svg>
