<svg width="109" height="30" viewBox="0 0 109 30" fill="none" xmlns="http://www.w3.org/2000/svg">
<g clip-path="url(#clip0)">
<path d="M54.5964 15.6774C51.8646 15.6774 49.6331 17.9222 49.6331 20.6702C49.6331 23.4182 51.8646 25.663 54.5964 25.663C57.3281 25.663 59.5597 23.4182 59.5597 20.6702C59.5597 17.9222 57.3281 15.6774 54.5964 15.6774ZM54.5964 23.4956C53.0189 23.4956 51.7107 22.2184 51.7107 20.5928C51.7107 18.9672 52.9804 17.69 54.5964 17.69C56.1738 17.69 57.482 18.9672 57.482 20.5928C57.482 22.2184 56.1738 23.4956 54.5964 23.4956Z" fill="#292F70"/>
<path d="M54.5962 26.2048C51.5952 26.1661 49.1712 23.7278 49.2097 20.7088C49.2482 17.6899 51.6721 15.2515 54.6732 15.2902C57.6358 15.329 60.0597 17.7673 60.0597 20.7475C60.0597 23.7665 57.6358 26.2048 54.6347 26.2048H54.5962ZM54.6347 16.2579C52.1723 16.2579 50.1716 18.2705 50.1716 20.7475C50.1716 23.2246 52.1723 25.2372 54.6347 25.2372C57.0971 25.2372 59.0978 23.2246 59.0978 20.7475C59.0978 18.2705 57.0971 16.2579 54.6347 16.2579ZM54.6347 24.0761C52.7879 24.0761 51.2874 22.5666 51.2874 20.7088C51.2874 18.851 52.7879 17.3416 54.6347 17.3416C56.4815 17.3416 57.982 18.851 57.982 20.7088C57.982 22.5666 56.4815 24.0761 54.6347 24.0761ZM54.6347 18.2705C53.3265 18.2705 52.2492 19.3542 52.2492 20.6701C52.2492 21.9861 53.3265 23.0698 54.6347 23.0698C55.9429 23.0698 57.0202 21.9861 57.0202 20.6701C57.0586 19.3542 55.9813 18.2705 54.6347 18.2705ZM34.3198 15.6773C31.742 15.5999 29.5874 17.5738 29.395 20.167V29.3786H31.4727V24.8115C33.6658 26.4758 36.7438 26.0887 38.4367 23.8826C40.0911 21.6765 39.7064 18.5801 37.5133 16.8771C36.5899 16.1804 35.4741 15.8321 34.3583 15.8708L34.3198 15.6773ZM34.3198 23.6891C32.7424 23.6891 31.4342 22.4118 31.4342 20.7863C31.4342 19.1994 32.7039 17.8834 34.3198 17.8834C35.9358 17.8834 37.2055 19.1607 37.2055 20.7863C37.167 22.4118 35.8973 23.6891 34.3198 23.6891Z" fill="#292F70"/>
<path d="M31.9344 29.9979H28.9333V19.8187C29.0873 18.6189 29.6644 17.5351 30.5493 16.7223C31.5881 15.7934 32.9348 15.2903 34.3199 15.2516C37.3209 15.2516 39.7449 17.69 39.7449 20.7089C39.7449 23.7278 37.3209 26.2049 34.3199 26.2049C33.5119 26.2049 32.6654 26.0114 31.9344 25.663V29.9979ZM29.8568 29.1077H30.9725V23.8826L31.742 24.4245C33.7812 25.8178 36.5514 25.3147 37.9365 23.2634C39.3216 21.212 38.8215 18.4253 36.7823 17.032C36.0512 16.5288 35.2048 16.2579 34.3199 16.2579C33.1656 16.2579 32.0498 16.6836 31.2034 17.4577C30.3569 18.1544 29.8952 19.1994 29.8568 20.2831V20.7863V29.1077ZM34.3199 24.1536C32.4731 24.0761 31.0495 22.4893 31.1264 20.6315C31.2034 18.7737 32.7809 17.3416 34.6277 17.419C36.3975 17.4964 37.7826 18.9285 37.8211 20.7089C37.8211 22.5667 36.3206 24.0761 34.4738 24.0761L34.3199 24.1536ZM34.4738 18.2705C33.1656 18.2705 32.0883 19.3542 32.0883 20.6702C32.0883 21.9861 33.1656 23.0698 34.4738 23.0698C35.7819 23.0698 36.8592 21.9861 36.8592 20.6702C36.8592 19.3542 35.7819 18.2705 34.4738 18.2705ZM93.6485 20.7476C93.6485 23.4956 95.8801 25.7404 98.6118 25.7017C99.6506 25.7017 100.613 25.3921 101.459 24.7728V25.7017H103.537V21.2507V20.3605C103.19 17.6125 100.689 15.716 97.9962 16.0644C95.6108 16.374 93.7639 18.3866 93.687 20.825L93.6485 20.7476ZM95.7262 20.825C95.7262 19.2381 96.9959 17.9222 98.6118 17.9222C100.189 17.9222 101.497 19.1994 101.497 20.825C101.497 22.4506 100.228 23.7278 98.6118 23.7278C97.0343 23.7665 95.7262 22.4893 95.6877 20.9024V20.7089" fill="#292F70"/>
<path d="M104.037 26.205H100.997V25.6631C100.266 26.0114 99.4583 26.205 98.6118 26.205C95.6108 26.205 93.1868 23.7666 93.1868 20.7477C93.1868 17.7287 95.6108 15.2904 98.6118 15.2904C101.382 15.2904 103.691 17.3804 103.998 20.1284V26.205H104.037ZM101.959 25.2373H103.075V21.1347V20.3219C102.844 17.8448 100.651 16.0644 98.2271 16.2967C95.7647 16.5289 93.9948 18.735 94.2257 21.1734C94.4565 23.6505 96.6496 25.4309 99.0735 25.1986C99.843 25.1212 100.574 24.8503 101.19 24.3859L101.959 23.844V25.2373ZM98.5733 24.0762C96.7265 24.0762 95.226 22.5668 95.226 20.709C95.226 18.8511 96.7265 17.3417 98.5733 17.3417C100.42 17.3417 101.921 18.8511 101.921 20.709C101.959 22.5668 100.459 24.0762 98.5733 24.0762ZM98.5733 18.2706C97.2652 18.2706 96.1879 19.3543 96.1879 20.6702C96.1879 21.9862 97.2652 23.0699 98.5733 23.0699C99.8815 23.0699 100.959 21.9862 100.959 20.6702C100.997 19.3543 99.92 18.2706 98.5733 18.2706ZM87.3001 25.7405C89.8395 25.7405 91.9941 23.8053 92.225 21.2508V12.0005H90.1473V16.6837C87.9542 15.0194 84.8762 15.4065 83.1833 17.6126C81.5289 19.8188 81.9136 22.9151 84.1067 24.6181C85.0301 25.3148 86.1459 25.6631 87.2617 25.6244L87.3001 25.7405ZM87.3001 17.8061C88.8776 17.8061 90.1858 19.0834 90.1858 20.709C90.1858 22.2958 88.9161 23.6118 87.3001 23.6118C85.6842 23.6118 84.4145 22.3345 84.4145 20.709C84.453 19.1608 85.7227 17.9222 87.2232 17.9222" fill="#292F70"/>
<path d="M87.3 26.2049C84.2989 26.2049 81.875 23.7666 81.875 20.7476C81.875 17.7287 84.2989 15.2903 87.3 15.2903C88.1464 15.2903 88.9544 15.4838 89.7239 15.8322V11.536H92.7634V21.6765C92.3017 24.2697 90.0317 26.1662 87.4154 26.1662L87.3 26.2049ZM87.3385 16.2192C84.8761 16.2192 82.9138 18.2318 82.9138 20.7089C82.9138 23.186 84.9145 25.1599 87.3769 25.1599C89.647 25.1599 91.5707 23.4182 91.7631 21.1347V12.5036H90.6473V17.6513L89.8778 17.1094C89.1083 16.5676 88.2234 16.2966 87.3 16.2966L87.3385 16.2192ZM87.3385 24.1923C85.4917 24.1923 83.9911 22.6828 83.9911 20.825C83.9911 18.9672 85.4917 17.4578 87.3385 17.4578C89.1853 17.4578 90.6858 18.9672 90.6858 20.825C90.6858 22.6828 89.1853 24.1923 87.3385 24.1923ZM87.3385 18.3867C86.0303 18.3867 84.953 19.4704 84.953 20.7863C84.953 22.1023 86.0303 23.186 87.3385 23.186C88.6466 23.186 89.7239 22.1023 89.7239 20.7863C89.7239 19.4704 88.6466 18.3867 87.3385 18.3867ZM68.2933 15.7548L64.9845 23.4182L61.5987 15.6774H59.521L63.9072 25.7792H66.0233L70.371 15.7548H68.2933Z" fill="#292F70"/>
<path d="M66.3312 26.2436H63.5994L58.79 15.1742H61.9065L64.9461 22.1797L67.9856 15.2129H71.2175L66.3312 26.2436ZM64.215 25.276H65.6771L69.64 16.2192H68.6012L64.9461 24.618L61.2909 16.1418H60.2521L64.215 25.276Z" fill="#292F70"/>
<path fill-rule="evenodd" clip-rule="evenodd" d="M47.9786 18.0382C47.286 16.103 45.1314 15.0967 43.2076 15.7934C41.861 16.2966 40.8991 17.4964 40.7837 18.9284V25.8565H43.0153V20.167C43.0153 19.2381 43.0153 18.2705 44.0926 17.9221C45.1699 17.5738 46.0163 18.3866 46.1318 19.5864H48.3633C48.3249 19.0833 48.2479 18.5801 48.094 18.077" fill="#292F70"/>
<path d="M42.8997 26.3598H40.2449V25.8953V23.186V21.3669V20.9799C40.2064 20.2832 40.2064 19.6252 40.2449 18.9286C40.4758 16.6063 42.515 14.8646 44.8235 15.0968C46.4779 15.2517 47.9015 16.3741 48.4401 17.961C48.594 18.5028 48.671 19.0447 48.7479 19.6252V20.1284H45.5545V19.7026C45.5545 19.2382 45.3621 18.8124 45.0158 18.5028C44.7465 18.348 44.4387 18.348 44.1309 18.5028C43.4768 18.735 43.3999 19.1995 43.3999 20.2445V20.1284V26.2824L42.8997 26.3598ZM41.2068 25.3922H42.438V20.1284C42.438 19.1995 42.438 17.8835 43.8231 17.4578C44.3618 17.2256 44.9774 17.303 45.4775 17.5739C45.9777 17.9222 46.324 18.4641 46.4009 19.0447H47.7476C47.7091 18.735 47.6321 18.4254 47.5552 18.1545C46.9396 16.4515 45.0543 15.5613 43.3614 16.2193C42.2072 16.645 41.3607 17.69 41.2453 18.9286C41.2068 19.5865 41.2068 20.2445 41.2453 20.8638V25.3922H41.2068ZM78.2583 22.0636C79.4895 22.0636 80.5284 21.1734 80.7592 19.9736C80.9901 18.735 80.4899 17.4578 79.4511 16.6837C77.3734 15.2129 74.6032 15.2129 72.564 16.6837C70.6018 18.2319 69.9862 20.9799 71.1789 23.186C72.4871 25.7018 74.5262 25.934 77.0271 25.934H80.5284V23.6892H75.2957C73.9876 23.5344 73.0257 22.3732 73.0642 21.0186C72.7564 19.6639 73.5644 18.3093 74.911 17.961C74.9495 17.961 74.9879 17.961 74.9879 17.9222C76.0268 17.69 77.7966 17.5352 78.0275 18.8899C78.2583 20.2445 76.6809 20.0123 76.1037 20.0123H74.911V21.9862H78.2583" fill="#292F70"/>
<path d="M80.9902 26.3597H77.0657C74.5648 26.3597 72.2563 26.1275 70.8327 23.3795C69.563 20.9798 70.1786 17.9996 72.3332 16.2966C74.5648 14.671 77.6043 14.671 79.8359 16.2966C80.9902 17.1481 81.5288 18.6188 81.298 20.0509C81.0286 21.483 79.7974 22.528 78.3738 22.5667H74.4878V19.5864H76.2192C76.527 19.5864 77.335 19.5865 77.5659 19.3542C77.7967 19.122 77.5659 19.3542 77.5659 19.0446C77.5274 18.8511 77.4504 18.6575 77.2581 18.5414C76.527 18.2705 75.7575 18.2705 75.0265 18.5414C73.9877 18.7737 73.2951 19.78 73.449 20.8637C73.3721 22.0248 74.2185 22.9924 75.3728 23.1085C76.4501 23.2247 79.605 23.1085 80.5285 23.1085H81.0671L80.9902 26.3597ZM76.1038 16.0257C74.9495 15.987 73.8338 16.3353 72.9103 17.032C71.102 18.4253 70.6018 20.9024 71.6791 22.915C72.8719 25.1599 74.6417 25.3921 77.1042 25.3921H80.1437V24.0761H75.2958C73.6799 23.96 72.4871 22.5667 72.5256 20.9411C72.2947 19.3155 73.4105 17.8448 74.988 17.5738C75.9499 17.2642 76.9887 17.3416 77.8737 17.8061C78.2584 18.077 78.4893 18.464 78.5662 18.9285C78.6432 19.3155 78.5662 19.7413 78.2969 20.0509C77.6813 20.5541 76.8733 20.7476 76.0653 20.5928H75.2958V21.6765H78.1045C79.1049 21.6378 79.9513 20.9411 80.1822 19.9348C80.3745 18.8511 79.9513 17.7286 79.0664 17.1094C78.1815 16.4127 77.1042 16.0644 75.9884 16.1418L76.1038 16.0257ZM107.538 21.0572V12.3488H105.307V22.3345C105.268 23.6891 105.961 24.9276 107.115 25.5856C107.538 25.8178 108.038 26.0114 108.5 26.1275V23.6504C107.538 23.1085 107.461 23.0311 107.461 20.9798" fill="#292F70"/>
<path d="M109 26.708H108.461C107.923 26.5919 107.384 26.3984 106.884 26.0887C105.614 25.3147 104.845 23.9213 104.883 22.4118V17.5738V11.8456H107.961V21.0185C107.961 22.8376 107.961 22.8376 108.769 23.2633L109 23.3794V26.708ZM105.845 18.0383V22.3344C105.807 23.4956 106.422 24.618 107.423 25.1985C107.615 25.3147 107.846 25.4308 108.077 25.5082V23.96C107.115 23.3794 107.038 22.9924 107.038 21.0185V18.0383V12.8132H105.845V18.1544" fill="#292F70"/>
<path d="M0 0.00390625H25.7014V25.8583H0V0.00390625Z" fill="#2A307B"/>
<path d="M22.6618 18.3866L17.7754 9.36856L18.7373 8.51707L15.1206 5.07239L13.8894 5.92388H12.1581L10.8884 5.07239L7.27173 8.51707L8.0797 9.36856L3.38574 18.3866L7.1563 16.0257L9.42633 17.9996L8.31055 22.4893L6.5407 24.0762L9.19548 23.6504L10.8499 19.122L13.0045 20.9798L15.1976 19.122L16.8135 23.6504L19.4299 24.0762L17.6985 22.5667L16.6596 17.9222L18.8912 16.0257L22.6618 18.3866Z" fill="white"/>
<path d="M15.4285 13.7035L14.7359 11.2651H11.2732L10.6191 13.7035L11.7733 12.5424L12.9661 13.7035L13.0045 13.7809L13.0815 13.7035L14.2357 12.5424L15.4285 13.7035ZM10.4652 7.23988L8.8877 8.55582L10.9654 10.5684L10.4652 7.23988ZM15.4669 7.20117L17.0829 8.51712L15.0437 10.5297L15.4669 7.20117Z" fill="#2A307B"/>
<path d="M14.6976 3.75645C14.6976 4.68536 13.9281 5.45944 13.0047 5.45944C12.0813 5.45944 11.3118 4.68536 11.3118 3.75645C11.3118 2.82755 12.0813 2.05347 13.0047 2.05347C13.9281 2.05347 14.6976 2.78885 14.6976 3.75645Z" fill="white"/>
</g>
<defs>
<clipPath id="clip0">
<rect width="109" height="30" fill="white"/>
</clipPath>
</defs>
</svg>
