<svg width="60" height="25" viewBox="0 0 60 25" fill="none" xmlns="http://www.w3.org/2000/svg">
<path d="M34.6835 24.7073C32.6067 24.7073 31.3613 23.3252 31.3613 21.3077C31.3613 19.2886 32.6067 17.9066 34.6835 17.9066C36.7634 17.9066 38.0024 19.2886 38.0024 21.3077C38.0024 23.3252 36.7634 24.7073 34.6835 24.7073ZM34.6835 23.4268C35.8505 23.4268 36.0424 22.3294 36.0424 21.3077C36.0424 20.2869 35.8505 19.1863 34.6835 19.1863C33.5196 19.1863 33.3278 20.2869 33.3278 21.3077C33.3278 22.3294 33.5196 23.4268 34.6835 23.4268Z" fill="#E20026"/>
<path d="M39.841 18.0985V16.834L41.7387 16.1422V18.0985H43.1727V19.3773H41.7387V22.3552C41.7387 23.1994 41.8682 23.4269 42.5269 23.4269C42.7315 23.4269 42.933 23.4027 43.1359 23.3897V24.5146C42.9201 24.6203 41.9018 24.7073 41.6412 24.7073C40.1559 24.7073 39.841 23.9268 39.841 22.5334V19.3773H38.5588V18.0985H39.841Z" fill="#E20026"/>
<path d="M47.3487 24.7073C45.2751 24.7073 44.0361 23.3252 44.0361 21.3077C44.0361 19.2886 45.2751 17.9066 47.3487 17.9066C49.4334 17.9066 50.6692 19.2886 50.6692 21.3077C50.6692 23.3252 49.4334 24.7073 47.3487 24.7073ZM47.3487 23.4268C48.5222 23.4268 48.7076 22.3294 48.7076 21.3077C48.7076 20.2869 48.5222 19.1863 47.3487 19.1863C46.1896 19.1863 45.9978 20.2869 45.9978 21.3077C45.9978 22.3294 46.1896 23.4268 47.3487 23.4268Z" fill="#E20026"/>
<path d="M30.9376 24.4993L28.4372 20.4095C29.5451 19.8579 30.1606 18.9015 30.1606 17.8921C30.1606 16.1011 28.5571 15.2423 26.9855 15.2302H23.0767V24.5008H25.0574V20.7352H26.3332L28.6194 24.4993H30.9376ZM25.0511 16.7712H26.701C27.5611 16.7857 28.0711 17.1308 28.0711 17.9525C28.0711 18.775 27.5611 19.2096 26.701 19.2249H25.0511V16.7712Z" fill="#E20026"/>
<path d="M59.7098 24.4944H57.7322L34.9216 1.47548L12.1974 24.4944H0.290039L24.2837 0.293422L35.7177 0.292603L59.7098 24.4944Z" fill="#E20026"/>
<path d="M34.6835 24.7073C32.6067 24.7073 31.3613 23.3252 31.3613 21.3077C31.3613 19.2886 32.6067 17.9066 34.6835 17.9066C36.7634 17.9066 38.0024 19.2886 38.0024 21.3077C38.0024 23.3252 36.7634 24.7073 34.6835 24.7073ZM34.6835 23.4268C35.8505 23.4268 36.0424 22.3294 36.0424 21.3077C36.0424 20.2869 35.8505 19.1863 34.6835 19.1863C33.5196 19.1863 33.3278 20.2869 33.3278 21.3077C33.3278 22.3294 33.5196 23.4268 34.6835 23.4268Z" fill="#E20026"/>
<path d="M39.841 18.0985V16.834L41.7387 16.1422V18.0985H43.1727V19.3773H41.7387V22.3552C41.7387 23.1994 41.8682 23.4269 42.5269 23.4269C42.7315 23.4269 42.933 23.4027 43.1359 23.3897V24.5146C42.9201 24.6203 41.9018 24.7073 41.6412 24.7073C40.1559 24.7073 39.841 23.9268 39.841 22.5334V19.3773H38.5588V18.0985H39.841Z" fill="#E20026"/>
<path d="M47.3487 24.7073C45.2751 24.7073 44.0361 23.3252 44.0361 21.3077C44.0361 19.2886 45.2751 17.9066 47.3487 17.9066C49.4334 17.9066 50.6692 19.2886 50.6692 21.3077C50.6692 23.3252 49.4334 24.7073 47.3487 24.7073ZM47.3487 23.4268C48.5222 23.4268 48.7076 22.3294 48.7076 21.3077C48.7076 20.2869 48.5222 19.1863 47.3487 19.1863C46.1896 19.1863 45.9978 20.2869 45.9978 21.3077C45.9978 22.3294 46.1896 23.4268 47.3487 23.4268Z" fill="#E20026"/>
<path d="M30.9376 24.4993L28.4372 20.4095C29.5451 19.8579 30.1606 18.9015 30.1606 17.8921C30.1606 16.1011 28.5571 15.2423 26.9855 15.2302H23.0767V24.5008H25.0574V20.7352H26.3332L28.6194 24.4993H30.9376ZM25.0511 16.7712H26.701C27.5611 16.7857 28.0711 17.1308 28.0711 17.9525C28.0711 18.775 27.5611 19.2096 26.701 19.2249H25.0511V16.7712Z" fill="#E20026"/>
<path d="M59.7098 24.4944H57.7322L34.9216 1.47548L12.1974 24.4944H0.290039L24.2837 0.293422L35.7177 0.292603L59.7098 24.4944Z" fill="#E20026"/>
</svg>
