<svg width="325" height="200" viewBox="0 0 325 200" fill="none" xmlns="http://www.w3.org/2000/svg">
<rect x="0.5" y="0.5" width="324" height="199" rx="2.5" stroke="#9497A1"/>
<path d="M114.787 45.8364H150.862H186.937V94.2355V142.635H114.787V45.8364Z" fill="#E1E1E1" stroke="#9497A1"/>
<path d="M96 160.627H205.725V165H96V160.627Z" fill="#E1E1E1"/>
<path d="M96 160.627H205.725M96 160.627L103.951 153.471H197.774L205.725 160.627M96 160.627V165H205.725V160.627" stroke="#9497A1"/>
<rect x="111.902" y="42.9511" width="77.9205" height="102.569" stroke="#9497A1"/>
<rect x="103.951" y="35" width="93.8226" height="118.471" stroke="#9497A1"/>
<rect x="106.041" y="99.6988" width="7.74618" height="4.56575" rx="2.28287" transform="rotate(-90 106.041 99.6988)" fill="white" stroke="#9497A1"/>
<rect x="107.631" y="94.3379" width="16.4924" height="2.97554" rx="1.48777" fill="white" stroke="#9497A1"/>
<rect x="189.528" y="133.888" width="4.56575" height="1.38532" rx="0.692661" transform="rotate(-90 189.528 133.888)" fill="white" stroke="#9497A1"/>
<rect x="189.528" y="51.9924" width="4.56575" height="1.38532" rx="0.692661" transform="rotate(-90 189.528 51.9924)" fill="white" stroke="#9497A1"/>
<rect x="189.528" y="140.249" width="4.56575" height="1.38532" rx="0.692661" transform="rotate(-90 189.528 140.249)" fill="white" stroke="#9497A1"/>
<rect x="189.528" y="58.3532" width="4.56575" height="1.38532" rx="0.692661" transform="rotate(-90 189.528 58.3532)" fill="white" stroke="#9497A1"/>
</svg>
