<svg width="325" height="200" viewBox="0 0 325 200" fill="none" xmlns="http://www.w3.org/2000/svg">
<rect x="0.5" y="0.5" width="324" height="199" rx="2.5" stroke="#9497A1"/>
<rect x="85.4021" y="43.4511" width="67.3792" height="101.569" fill="#E1E1E1" stroke="#9497A1"/>
<path d="M69 160.627H255.85V165H69V160.627Z" fill="#E1E1E1"/>
<path d="M69 160.627H255.85M69 160.627L76.9511 153.471H247.899L255.85 160.627M69 160.627V165H255.85V160.627" stroke="#9497A1"/>
<rect x="76.9511" y="35" width="85.0765" height="118.471" stroke="#9497A1"/>
<path d="M172.864 45.8364H204.168H235.472V94.2355V142.635H172.864V45.8364Z" fill="#E1E1E1" stroke="#9497A1"/>
<rect x="169.979" y="42.9511" width="68.3792" height="102.569" stroke="#9497A1"/>
<rect x="162.028" y="35" width="85.0765" height="118.471" stroke="#9497A1"/>
<rect x="164.118" y="99.6988" width="7.74618" height="4.56575" rx="2.28287" transform="rotate(-90 164.118 99.6988)" fill="white" stroke="#9497A1"/>
<rect x="165.708" y="94.3379" width="16.4924" height="2.97554" rx="1.48777" fill="white" stroke="#9497A1"/>
<rect x="238.063" y="134.684" width="4.56575" height="1.38532" rx="0.69266" transform="rotate(-90 238.063 134.684)" fill="white" stroke="#9497A1"/>
<rect x="238.063" y="52.7874" width="4.56575" height="1.38532" rx="0.69266" transform="rotate(-90 238.063 52.7874)" fill="white" stroke="#9497A1"/>
<rect x="238.063" y="141.044" width="4.56575" height="1.38532" rx="0.69266" transform="rotate(-90 238.063 141.044)" fill="white" stroke="#9497A1"/>
<rect x="238.063" y="59.1483" width="4.56575" height="1.38532" rx="0.69266" transform="rotate(-90 238.063 59.1483)" fill="white" stroke="#9497A1"/>
</svg>
