<svg width="325" height="200" viewBox="0 0 325 200" fill="none" xmlns="http://www.w3.org/2000/svg">
<rect x="0.5" y="0.5" width="324" height="199" rx="2.5" stroke="#9497A1"/>
<rect x="60.4021" y="44.317" width="57.8379" height="101.569" fill="#E1E1E1" stroke="#9497A1"/>
<rect x="209.882" y="44.317" width="57.8379" height="101.569" fill="#E1E1E1" stroke="#9497A1"/>
<path d="M44 161.493H284.122V165.866H44V161.493Z" fill="#E1E1E1"/>
<path d="M44 161.493H284.122M44 161.493L51.9511 154.337H276.171L284.122 161.493M44 161.493V165.866H284.122V161.493" stroke="#9497A1"/>
<rect x="51.9511" y="35.8659" width="74.7401" height="118.471" stroke="#9497A1"/>
<rect x="201.431" y="35.8659" width="74.7401" height="118.471" stroke="#9497A1"/>
<path d="M137.528 46.7023H164.061H190.595V95.1014V143.5H137.528V46.7023Z" fill="#E1E1E1" stroke="#9497A1"/>
<rect x="134.642" y="43.817" width="58.8379" height="102.569" stroke="#9497A1"/>
<rect x="126.691" y="35.8659" width="74.7401" height="118.471" stroke="#9497A1"/>
<rect x="128.781" y="100.565" width="7.74618" height="4.56575" rx="2.28287" transform="rotate(-90 128.781 100.565)" fill="white" stroke="#9497A1"/>
<rect x="130.372" y="95.2038" width="16.4924" height="2.97553" rx="1.48777" fill="white" stroke="#9497A1"/>
<rect x="193.185" y="134.754" width="4.56575" height="1.38532" rx="0.69266" transform="rotate(-90 193.185 134.754)" fill="white" stroke="#9497A1"/>
<rect x="193.185" y="52.8582" width="4.56575" height="1.38532" rx="0.69266" transform="rotate(-90 193.185 52.8582)" fill="white" stroke="#9497A1"/>
<rect x="193.185" y="141.115" width="4.56575" height="1.38532" rx="0.69266" transform="rotate(-90 193.185 141.115)" fill="white" stroke="#9497A1"/>
<rect x="193.185" y="59.2191" width="4.56575" height="1.38532" rx="0.69266" transform="rotate(-90 193.185 59.2191)" fill="white" stroke="#9497A1"/>
</svg>
