<svg width="325" height="200" viewBox="0 0 325 200" fill="none" xmlns="http://www.w3.org/2000/svg">
<rect x="0.5" y="0.5" width="324" height="199" rx="2.5" stroke="#9497A1"/>
<rect x="149.829" y="29.0808" width="89.2515" height="84.5509" fill="#E1E1E1" stroke="#9497A1"/>
<rect x="142.749" y="22" width="103.413" height="98.7126" stroke="#9497A1"/>
<path d="M132.847 31.9012H109.374H85.9012V70.4162V108.931H132.847V31.9012Z" fill="#E1E1E1" stroke="#9497A1"/>
<path d="M132.847 120.272H109.374H85.9012V144.686V169.099H132.847V120.272Z" fill="#E1E1E1" stroke="#9497A1"/>
<rect width="53.5868" height="83.6707" transform="matrix(-1 0 0 1 136.168 28.5808)" stroke="#9497A1"/>
<rect width="53.5868" height="55.4671" transform="matrix(-1 0 0 1 136.168 116.952)" stroke="#9497A1"/>
<rect width="64.8683" height="157" transform="matrix(-1 0 0 1 142.749 22)" stroke="#9497A1"/>
<rect x="-0.5" y="-0.5" width="5.58084" height="2.76048" rx="1.38024" transform="matrix(4.37114e-08 -1 -1 -4.37114e-08 139.868 104.671)" fill="white" stroke="#9497A1"/>
<rect x="-0.5" y="0.5" width="12.1617" height="1.82036" rx="0.91018" transform="matrix(-1 0 0 1 138.928 100.97)" fill="white" stroke="#9497A1"/>
<rect x="-0.5" y="-0.5" width="5.58084" height="1.82036" rx="0.91018" transform="matrix(6.17102e-08 -1 -1 -3.09622e-08 77.8204 138.515)" fill="white" stroke="#9497A1"/>
<rect x="-0.5" y="-0.5" width="5.58084" height="1.82036" rx="0.91018" transform="matrix(6.17102e-08 -1 -1 -3.09622e-08 77.8204 41.6826)" fill="white" stroke="#9497A1"/>
<rect x="-0.5" y="-0.5" width="5.58084" height="1.82036" rx="0.91018" transform="matrix(6.17102e-08 -1 -1 -3.09622e-08 77.8204 146.036)" fill="white" stroke="#9497A1"/>
<rect x="-0.5" y="-0.5" width="5.58084" height="1.82036" rx="0.91018" transform="matrix(6.17102e-08 -1 -1 -3.09622e-08 77.8204 49.2036)" fill="white" stroke="#9497A1"/>
<path d="M250.862 124.214H138.048L142.749 120.713H246.162L250.862 124.214Z" fill="white"/>
<path d="M138.048 124.214H250.862V126.353H138.048V124.214Z" fill="white"/>
<path d="M138.048 124.214H250.862M138.048 124.214L142.749 120.713H246.162L250.862 124.214M138.048 124.214V126.353H250.862V124.214" stroke="#9497A1"/>
</svg>
