<svg width="325" height="201" viewBox="0 0 325 201" fill="none" xmlns="http://www.w3.org/2000/svg">
<rect x="0.5" y="0.5" width="324" height="199" rx="2.5" stroke="#9497A1"/>
<path d="M58.5 34.5L1.5 1" stroke="#9497A1"/>
<path d="M323.5 199L264 167" stroke="#9497A1"/>
<path d="M58 34V199" stroke="#9497A1"/>
<path d="M264 1V167" stroke="#9497A1"/>
<path d="M264 167L207 200" stroke="#9497A1"/>
<path d="M115 1L58 34" stroke="#9497A1"/>
<path d="M139 53.2559V169.025L140.304 169.833L179.664 141.113L186.258 31.8081L184.953 31L139 53.2559Z" fill="#7B7F8B"/>
<path d="M140.303 54.4164L186.265 31.8142V147.231L140.303 169.833V54.4164Z" fill="#ECECEC"/>
<path d="M142.905 56.2392L182.352 37.1428L184.026 37.9569L144.586 165.593L142.905 164.778V56.2392Z" fill="#9497A1"/>
<path d="M142.905 56.2392L144.586 57.0533L184.026 37.9569L182.352 37.1428L142.905 56.2392Z" fill="#DBDCE0"/>
<path d="M148.042 57.6852L177.214 43.5649V143.3L148.042 157.42V57.6852Z" fill="#FFFEFF"/>
<path d="M177.214 43.5649V143.3L148.042 157.42V155.798L175.541 142.486V44.373L177.214 43.5649Z" fill="#9497A1"/>
<path d="M144.586 57.0533L184.026 37.9569V146.502L144.586 165.592V57.0533Z" fill="#F4F5FA"/>
<path d="M178.896 44.3791V144.114L149.723 158.241V58.5055L175.541 46.0013L177.207 45.1933L178.896 44.3791Z" fill="#BBBBBB"/>
<path d="M178.895 44.3791V144.114L149.716 158.235V156.612L177.214 143.3V45.1872L178.895 44.3791Z" fill="#9497A1"/>
<path d="M149.716 156.612L149.723 158.241L178.895 144.114L177.222 143.3L149.716 156.612Z" fill="#DBDCE0"/>
<path d="M175.649 47.6661V144.06L149.723 156.612V60.2249L175.649 47.6661Z" fill="#E1E1E1"/>
<path d="M177.207 45.1932V143.306L149.723 156.6V154.972L175.541 142.486V46.0013L177.207 45.1932Z" fill="#CCCCCC"/>
<path d="M145.752 110.326L145.325 110.94V119.343L145.912 119.586L147.789 118.638L148.057 117.854L145.752 110.326Z" fill="#C5C7CF"/>
<path d="M145.752 110.326L146.289 110.588L148.397 109.567L147.861 109.306L145.752 110.326Z" fill="#C5C7CF"/>
<path d="M146.289 118.906V110.588L148.397 109.567V117.885L146.289 118.906Z" fill="#E1E1E1"/>
<path d="M145.752 110.326L146.289 110.588V118.906L145.752 118.65V110.326Z" fill="#9497A1"/>
<path d="M146.687 114.069V115.157L148.347 115.965V114.877L146.687 114.069Z" fill="#9497A1"/>
<path d="M148.347 114.877V115.965L149.55 115.382V114.294L148.347 114.877Z" fill="#A21B00"/>
<path d="M148.347 114.877L146.687 114.069L147.89 113.486L149.549 114.294L148.347 114.877Z" fill="#C5C7CF"/>
<path d="M157.273 111.669V112.969L149.556 116.737V115.436L157.273 111.669Z" fill="#ECECEC"/>
<path d="M149.557 115.436V116.737L148.122 116.038V114.738L149.557 115.436Z" fill="#9497A1"/>
<path d="M149.557 115.436L157.274 111.669L155.839 110.977L148.122 114.738L149.557 115.436Z" fill="#C5C7CF"/>
</svg>
