<svg width="325" height="201" viewBox="0 0 325 201" fill="none" xmlns="http://www.w3.org/2000/svg">
<rect x="0.5" y="0.5" width="324" height="199" rx="2.5" stroke="#9497A1"/>
<path d="M58.5 34.5L1.5 1" stroke="#9497A1"/>
<path d="M323.5 199L264 167" stroke="#9497A1"/>
<path d="M58 34V199" stroke="#9497A1"/>
<path d="M264 1V167" stroke="#9497A1"/>
<path d="M264 167L207 200" stroke="#9497A1"/>
<path d="M115 1L58 34" stroke="#9497A1"/>
<path d="M128 67.3744V169.118L129.038 169.828L192.223 127.772L197.473 31.7102L196.435 31L128 67.3744Z" fill="#7B7F8B"/>
<path d="M129.039 68.3996L197.479 31.7156V133.149L129.039 169.833V68.3996Z" fill="#ECECEC"/>
<path d="M131.196 69.7666L162.598 52.9891L162.956 53.1813L131.554 165.353L131.196 165.161V69.7666Z" fill="#9497A1"/>
<path d="M131.196 69.7666L131.554 69.9642L162.956 53.1813L162.598 52.9891L131.196 69.7666Z" fill="#DBDCE0"/>
<path d="M131.554 69.9642L162.956 53.1813V148.571L131.554 165.353V69.9642Z" fill="#E8E9F0"/>
<path d="M134.94 71.6088L159.575 58.4463V146.098L134.94 159.261V71.6088Z" fill="#BBBBBB"/>
<path d="M162.956 53.1813L194.364 36.3985L195.696 37.114L164.294 149.286L162.956 148.571V53.1813Z" fill="#9497A1"/>
<path d="M162.956 53.1813L164.294 53.8969L195.696 37.114L194.364 36.3985L162.956 53.1813Z" fill="#DBDCE0"/>
<path d="M167.046 54.4522L190.273 42.0427V129.695L167.046 142.104V54.4522Z" fill="#FFFEFF"/>
<path d="M159.575 58.4463V146.098L134.94 159.261V157.835L158.242 145.383V59.1565L159.575 58.4463Z" fill="#9497A1"/>
<path d="M134.935 157.835L134.94 159.261L159.575 146.098L158.242 145.383L134.935 157.835Z" fill="#DBDCE0"/>
<path d="M190.273 42.0427V129.695L167.046 142.104V140.678L188.94 128.979V42.7528L190.273 42.0427Z" fill="#9497A1"/>
<path d="M164.294 53.8968L195.696 37.114V132.509L164.294 149.286V53.8968Z" fill="#F4F5FA"/>
<path d="M191.611 42.7582V130.41L168.385 142.825V55.1731L188.94 44.1839L190.267 43.4737L191.611 42.7582Z" fill="#BBBBBB"/>
<path d="M191.611 42.7582V130.41L168.379 142.82V141.394L190.273 129.695V43.4684L191.611 42.7582Z" fill="#9497A1"/>
<path d="M168.379 141.394L168.384 142.825L191.611 130.41L190.279 129.695L168.379 141.394Z" fill="#DBDCE0"/>
<path d="M189.027 45.647V130.362L168.385 141.394V56.6842L189.027 45.647Z" fill="#E1E1E1"/>
<path d="M190.267 43.4737V129.7L168.385 141.383V139.952L188.941 128.979V44.1839L190.267 43.4737Z" fill="#CCCCCC"/>
<path d="M157.458 61.0948V145.81L134.946 157.83V73.1146L143.917 68.3302L157.458 61.0948Z" fill="#E1E1E1"/>
<path d="M158.242 59.1565V145.383L134.94 157.835V156.404L156.91 144.662V59.8667L158.242 59.1565Z" fill="#CCCCCC"/>
<path d="M165.223 100.716L164.883 101.255V108.64L165.35 108.853L166.844 108.02L167.058 107.332L165.223 100.716Z" fill="#C5C7CF"/>
<path d="M165.223 100.716L165.65 100.945L167.329 100.048L166.902 99.8187L165.223 100.716Z" fill="#C5C7CF"/>
<path d="M165.65 108.255V100.945L167.329 100.048V107.358L165.65 108.255Z" fill="#E1E1E1"/>
<path d="M165.223 100.716L165.65 100.945V108.255L165.223 108.031V100.716Z" fill="#9497A1"/>
<path d="M165.967 104.005V104.961L167.288 105.671V104.715L165.967 104.005Z" fill="#9497A1"/>
<path d="M167.288 104.715V105.671L168.246 105.158V104.203L167.288 104.715Z" fill="#A21B00"/>
<path d="M167.288 104.715L165.967 104.005L166.925 103.492L168.246 104.203L167.288 104.715Z" fill="#C5C7CF"/>
<path d="M174.396 101.896V103.039L168.252 106.349V105.207L174.396 101.896Z" fill="#ECECEC"/>
<path d="M168.252 105.207V106.349L167.11 105.735V104.592L168.252 105.207Z" fill="#9497A1"/>
<path d="M168.252 105.206L174.396 101.896L173.254 101.287L167.11 104.592L168.252 105.206Z" fill="#C5C7CF"/>
</svg>
