<svg width="325" height="201" viewBox="0 0 325 201" fill="none" xmlns="http://www.w3.org/2000/svg">
<rect x="0.5" y="0.5" width="324" height="199" rx="2.5" stroke="#9497A1"/>
<path d="M58.5 34.5L1.5 1" stroke="#9497A1"/>
<path d="M323.5 199L264 167" stroke="#9497A1"/>
<path d="M58 34V199" stroke="#9497A1"/>
<path d="M264 1V167" stroke="#9497A1"/>
<path d="M264 167L207 200" stroke="#9497A1"/>
<path d="M115 1L58 34" stroke="#9497A1"/>
<path d="M117 78.8027V169.178L117.959 169.833L205.803 121.567L207.443 31.6556L206.484 31L117 78.8027ZM159.156 59.5968L202.197 36.5951V119.596L159.156 142.597V59.5968Z" fill="#7B7F8B"/>
<path d="M117.959 79.4682L207.438 31.6507V122.016L117.959 169.829V79.4682Z" fill="#ECECEC"/>
<path d="M148.387 65.5519L176.365 50.6052L176.685 50.7778L148.712 150.706L148.387 150.534V65.5519Z" fill="#9497A1"/>
<path d="M148.387 65.5519L148.712 65.7244L176.685 50.7778L176.365 50.6052L148.387 65.5519Z" fill="#DBDCE0"/>
<path d="M148.712 65.7244L176.685 50.7777V135.755L148.712 150.706V65.7244Z" fill="#E8E9F0"/>
<path d="M151.727 67.1934L173.67 55.4658V133.551L151.727 145.279V67.1934Z" fill="#BBBBBB"/>
<path d="M120.734 80.676L148.712 65.7244L149.9 66.3652L121.927 166.294L120.734 165.653V80.676Z" fill="#9497A1"/>
<path d="M124.377 81.8098L145.069 70.7477V148.838L124.377 159.895V81.8098Z" fill="#FFFEFF"/>
<path d="M176.685 50.7777L204.657 35.8261L205.85 36.467L177.872 136.396L176.685 135.755V50.7777Z" fill="#9497A1"/>
<path d="M176.685 50.7777L177.872 51.4136L205.85 36.467L204.657 35.8261L176.685 50.7777Z" fill="#DBDCE0"/>
<path d="M180.328 51.9115L201.02 40.8494V118.94L180.328 129.997V51.9115Z" fill="#FFFEFF"/>
<path d="M145.069 70.7477V148.838L124.377 159.895V158.623L143.881 148.197V71.3836L145.069 70.7477Z" fill="#9497A1"/>
<path d="M173.67 55.4658V133.551L151.727 145.279V144.007L172.482 132.915V56.1017L173.67 55.4658Z" fill="#9497A1"/>
<path d="M151.721 144.007L151.727 145.279L173.67 133.551L172.482 132.915L151.721 144.007Z" fill="#DBDCE0"/>
<path d="M201.02 40.8494V118.94L180.328 129.997V128.725L199.832 118.299V41.4853L201.02 40.8494Z" fill="#9497A1"/>
<path d="M121.927 81.3119L149.9 66.3652V151.342L121.927 166.294V81.3119Z" fill="#F4F5FA"/>
<path d="M125.564 82.4457L146.256 71.3885V149.474L125.564 160.531V82.4457Z" fill="#BBBBBB"/>
<path d="M177.873 51.4136L205.851 36.467V121.444L177.873 136.396V51.4136Z" fill="#F4F5FA"/>
<path d="M202.213 41.4903V119.576L181.521 130.633V52.5475L199.832 42.7621L201.015 42.1311L202.213 41.4903Z" fill="#BBBBBB"/>
<path d="M146.256 71.3885V149.474L125.564 160.531V159.259L145.069 148.838V72.0244L146.256 71.3885Z" fill="#9497A1"/>
<path d="M125.564 159.259L125.57 160.536L146.256 149.474L145.069 148.838L125.564 159.259Z" fill="#DBDCE0"/>
<path d="M202.208 41.4903V119.576L181.516 130.633V129.361L201.02 118.94V42.1262L202.208 41.4903Z" fill="#9497A1"/>
<path d="M181.516 129.361L181.521 130.633L202.213 119.576L201.02 118.935L181.516 129.361Z" fill="#DBDCE0"/>
<path d="M143.961 73.957V149.425L136.606 153.354L125.57 159.264V83.7867L143.961 73.957Z" fill="#E1E1E1"/>
<path d="M199.907 44.0636V119.531L181.521 129.361V53.8933L199.907 44.0636Z" fill="#E1E1E1"/>
<path d="M201.015 42.1311V118.945L181.521 129.351V128.079L199.832 118.304V42.7621L201.015 42.1311Z" fill="#CCCCCC"/>
<path d="M171.785 57.8271V133.295L151.727 144.002V68.5343L159.721 64.2701L171.785 57.8271Z" fill="#E1E1E1"/>
<path d="M172.482 56.1017V132.915L151.727 144.007V142.735L171.295 132.275V56.7327L172.482 56.1017Z" fill="#CCCCCC"/>
<path d="M145.069 72.0244V148.838L125.564 159.259V157.988L143.886 148.197V72.6554L145.069 72.0244Z" fill="#CCCCCC"/>
<path d="M120.734 80.676L121.927 81.3119L149.9 66.3652L148.712 65.7244L120.734 80.676Z" fill="#DBDCE0"/>
<path d="M178.703 93.1234L178.4 93.6015V100.183L178.815 100.375L180.147 99.6304L180.339 99.0192L178.703 93.1234Z" fill="#C5C7CF"/>
<path d="M178.703 93.1233L179.082 93.3254L180.578 92.5269L180.2 92.3248L178.703 93.1233Z" fill="#C5C7CF"/>
<path d="M179.082 99.8424V93.3255L180.578 92.5269V99.0438L179.082 99.8424Z" fill="#E1E1E1"/>
<path d="M178.703 93.1234L179.081 93.3255V99.8424L178.703 99.6403V93.1234Z" fill="#9497A1"/>
<path d="M179.369 96.0516V96.9043L180.541 97.5353V96.6874L179.369 96.0516Z" fill="#9497A1"/>
<path d="M180.541 96.6874V97.5353L181.393 97.0818V96.2289L180.541 96.6874Z" fill="#A21B00"/>
<path d="M180.541 96.6875L179.369 96.0516L180.216 95.598L181.393 96.229L180.541 96.6875Z" fill="#C5C7CF"/>
<path d="M186.874 94.1733V95.1938L181.398 98.1417V97.1262L186.874 94.1733Z" fill="#ECECEC"/>
<path d="M181.398 97.1262V98.1417L180.381 97.5945V96.579L181.398 97.1262Z" fill="#9497A1"/>
<path d="M181.398 97.1262L186.874 94.1783L185.856 93.6311L180.381 96.579L181.398 97.1262Z" fill="#C5C7CF"/>
<path d="M147.46 109.84L147.151 110.318V116.899L147.572 117.091L148.898 116.347L149.09 115.736L147.46 109.84Z" fill="#C5C7CF"/>
<path d="M147.46 109.84L147.838 110.042L149.335 109.243L148.957 109.041L147.46 109.84Z" fill="#C5C7CF"/>
<path d="M147.838 116.559V110.042L149.335 109.243V115.76L147.838 116.559Z" fill="#E1E1E1"/>
<path d="M147.46 109.84L147.838 110.042V116.559L147.46 116.357V109.84Z" fill="#9497A1"/>
<path d="M148.121 112.768V113.621L149.298 114.252V113.404L148.121 112.768Z" fill="#9497A1"/>
<path d="M149.298 113.404V114.252L150.15 113.798V112.945L149.298 113.404Z" fill="#A21B00"/>
<path d="M149.298 113.404L148.121 112.768L148.973 112.314L150.15 112.945L149.298 113.404Z" fill="#C5C7CF"/>
<path d="M151.098 113.33V114.35L145.628 117.298V116.278L151.098 113.33Z" fill="#ECECEC"/>
<path d="M145.628 116.278V117.298L144.605 116.751V115.736L145.628 116.278Z" fill="#9497A1"/>
<path d="M145.628 116.278L151.098 113.33L150.081 112.783L144.605 115.736L145.628 116.278Z" fill="#C5C7CF"/>
</svg>
