<svg width="325" height="201" viewBox="0 0 325 201" fill="none" xmlns="http://www.w3.org/2000/svg">
<rect x="0.5" y="0.5" width="324" height="199" rx="2.5" stroke="#9497A1"/>
<path d="M58.5 34.5L1.5 1" stroke="#9497A1"/>
<path d="M323.5 199L264 167" stroke="#9497A1"/>
<path d="M58 34V199" stroke="#9497A1"/>
<path d="M264 1V167" stroke="#9497A1"/>
<path d="M264 167L207 200" stroke="#9497A1"/>
<path d="M115 1L58 34" stroke="#9497A1"/>
<path d="M134 61.1774V168.996L134.89 169.605L153.023 135.525L164.085 129.35L189.715 115.041L190.743 31.6084L189.853 31L134 61.1774ZM173.119 43.3555L186.369 36.192V113.211L173.119 120.375V43.3555Z" fill="#7B7F8B"/>
<path d="M134.89 61.795L190.738 31.6039V115.457L164.643 129.35V153.594L134.89 169.833V61.795Z" fill="#C5C7CF"/>
<path d="M163.125 48.8814L189.087 35.0117L189.384 35.1718L163.427 127.9L163.125 127.74V48.8814Z" fill="#9497A1"/>
<path d="M163.125 48.8814L163.427 49.0415L189.384 35.1718L189.087 35.0117L163.125 48.8814Z" fill="#DBDCE0"/>
<path d="M163.427 49.0415L189.384 35.1719V114.026L163.427 127.9V49.0415Z" fill="#E8E9F0"/>
<path d="M166.224 50.4047L186.587 39.5222V111.981L166.224 122.863V50.4047Z" fill="#BBBBBB"/>
<path d="M137.465 62.9157L163.427 49.0415L164.529 49.6362L138.572 164.573L137.465 163.978V62.9157Z" fill="#9497A1"/>
<path d="M140.845 63.9679L160.046 53.7029V126.166L140.845 136.427V63.9679Z" fill="#FFFEFF"/>
<path d="M160.046 53.7029V126.166L140.845 136.427V135.246L158.944 125.571V54.293L160.046 53.7029Z" fill="#9497A1"/>
<path d="M186.587 39.5222V111.981L166.224 122.863V121.683L185.484 111.391V40.1123L186.587 39.5222Z" fill="#9497A1"/>
<path d="M166.219 121.683L166.224 122.863L186.587 111.981L185.484 111.391L166.219 121.683Z" fill="#DBDCE0"/>
<path d="M138.572 63.5057L164.529 49.6361V151.362L138.572 165.236V63.5057Z" fill="#F4F5FA"/>
<path d="M141.947 64.5579L151.548 59.4277L161.148 54.2975V126.756L141.947 137.017V64.5579Z" fill="#BBBBBB"/>
<path d="M141.947 140.068L151.548 134.938L161.148 129.807V147.373L141.947 157.633V140.068Z" fill="#BBBBBB"/>
<path d="M161.148 54.2975V126.756L141.947 137.017V135.836L160.046 126.166V54.8876L161.148 54.2975Z" fill="#9497A1"/>
<path d="M161.148 130.951V150.118L141.947 160.378V159.198L160.046 149.528V131.541L161.148 130.951Z" fill="#9497A1"/>
<path d="M141.947 135.836L141.952 137.021L161.148 126.756L160.046 126.166L141.947 135.836Z" fill="#DBDCE0"/>
<path d="M141.947 159.148L141.952 160.332L161.148 150.067L160.046 149.477L141.947 159.148Z" fill="#DBDCE0"/>
<path d="M159.018 56.6807V126.71L152.193 130.356L141.952 135.841V65.8021L159.018 56.6807Z" fill="#E1E1E1"/>
<path d="M159.018 132.095V149.976L152.193 153.622L141.952 159.106V141.216L159.018 132.095Z" fill="#E1E1E1"/>
<path d="M184.837 41.7133V111.743L166.224 121.679V51.6489L173.643 47.692L184.837 41.7133Z" fill="#E1E1E1"/>
<path d="M185.484 40.1122V111.391L166.224 121.683V120.503L184.382 110.796V40.6978L185.484 40.1122Z" fill="#CCCCCC"/>
<path d="M160.046 54.8876V126.166L141.947 135.836V134.656L158.949 125.571V55.4732L160.046 54.8876Z" fill="#CCCCCC"/>
<path d="M160.046 131.637V149.395L141.947 159.065V157.885L158.949 148.8V132.223L160.046 131.637Z" fill="#CCCCCC"/>
<path d="M137.465 62.9158L138.572 63.5059L164.529 49.6362L163.427 49.0415L137.465 62.9158Z" fill="#DBDCE0"/>
<path d="M162.265 89.9779L161.979 90.4216V96.5285L162.369 96.7069L163.6 96.0162L163.778 95.4489L162.265 89.9779Z" fill="#C5C7CF"/>
<path d="M162.266 89.9779L162.617 90.1655L164.006 89.4244L163.655 89.2368L162.266 89.9779Z" fill="#C5C7CF"/>
<path d="M162.616 96.2128V90.1655L164.005 89.4244V95.4717L162.616 96.2128Z" fill="#E1E1E1"/>
<path d="M162.265 89.9779L162.616 90.1655V96.2128L162.265 96.0252V89.9779Z" fill="#9497A1"/>
<path d="M162.878 92.6952V93.4865L163.97 94.072V93.2853L162.878 92.6952Z" fill="#9497A1"/>
<path d="M163.97 93.2852V94.0721L164.761 93.6512V92.8598L163.97 93.2852Z" fill="#A21B00"/>
<path d="M163.971 93.2852L162.879 92.6951L163.669 92.2743L164.762 92.8598L163.971 93.2852Z" fill="#C5C7CF"/>
<path d="M165.641 93.2166V94.1635L160.565 96.899V95.9521L165.641 93.2166Z" fill="#ECECEC"/>
<path d="M160.565 95.9521V96.899L159.616 96.3912V95.4489L160.565 95.9521Z" fill="#9497A1"/>
<path d="M160.565 95.9521L165.641 93.2166L164.697 92.7088L159.616 95.4489L160.565 95.9521Z" fill="#C5C7CF"/>
</svg>
