<svg width="87" height="93" viewBox="0 0 87 93" fill="none" xmlns="http://www.w3.org/2000/svg">
<rect x="3.5" y="0.5" width="80" height="89.7046" rx="2.5" fill="#E1E1E1" stroke="#9497A1"/>
<path d="M17.5 27.0647C17.5 25.684 18.6193 24.5647 20 24.5647H67C68.3807 24.5647 69.5 25.684 69.5 27.0647V51.3313H17.5V27.0647Z" fill="white" stroke="#9497A1"/>
<path d="M22.5 31.6924C22.5 30.3117 23.6193 29.1924 25 29.1924H62C63.3807 29.1924 64.5 30.3117 64.5 31.6924V51.3313H22.5V31.6924Z" stroke="#9497A1"/>
<rect x="0.5" y="86.5112" width="85.8687" height="5.54443" rx="2.5" fill="#E1E1E1" stroke="#9497A1"/>
<path d="M43 51.8313V28.6924" stroke="#9497A1"/>
<path d="M19 86.0767V51.8313" stroke="#9497A1"/>
<path d="M35 86.0767V51.8313" stroke="#9497A1"/>
<path d="M51 86.0767V51.8313" stroke="#9497A1"/>
<path d="M67 86.0767V51.8313" stroke="#9497A1"/>
<path d="M11 86.0767V51.8313" stroke="#9497A1"/>
<path d="M27 86.0767V51.8313" stroke="#9497A1"/>
<path d="M43 86.0767V51.8313" stroke="#9497A1"/>
<path d="M59 86.0767V51.8313" stroke="#9497A1"/>
<path d="M75 86.0767V51.8313" stroke="#9497A1"/>
<path d="M83 51.8313L4 51.8313" stroke="#9497A1" stroke-linecap="round"/>
<path d="M12 4.62769L8 8.32983" stroke="#9497A1" stroke-linecap="round"/>
<path d="M13 9.25562L8 13.8835" stroke="#9497A1" stroke-linecap="round"/>
<path d="M17 5.55322L15 7.40454" stroke="#9497A1" stroke-linecap="round"/>
</svg>
