<svg width="87" height="93" viewBox="0 0 87 93" fill="none" xmlns="http://www.w3.org/2000/svg">
<rect x="0.5" y="0.5" width="85.8687" height="5.54443" rx="2.5" fill="#E1E1E1" stroke="#9497A1"/>
<rect x="10.6011" y="13.5886" width="65.6667" height="66.3132" rx="2.5" stroke="#9497A1"/>
<rect x="10.6011" y="13.5886" width="65.6667" height="26.1123" rx="2.5" fill="#E1E1E1" stroke="#9497A1"/>
<rect x="0.5" y="86.5112" width="85.8687" height="5.54443" rx="2.5" fill="#E1E1E1" stroke="#9497A1"/>
<rect x="3.53027" y="6.10962" width="78.798" height="80.3367" stroke="#9497A1"/>
<path d="M48.9948 50.0175C48.9948 53.0617 46.3163 55.5942 42.9292 55.5942C39.5421 55.5942 36.8635 53.0617 36.8635 50.0175C36.8635 46.9732 39.5421 44.4407 42.9292 44.4407C46.3163 44.4407 48.9948 46.9732 48.9948 50.0175Z" fill="#E1E1E1" stroke="#9497A1"/>
<path d="M42.9292 44.408V40.2009" stroke="#9497A1"/>
<path d="M24.2424 32.7217H11.1111" stroke="#9497A1" stroke-linecap="round"/>
<path d="M62.6263 20.5679L75.7576 20.5679" stroke="#9497A1" stroke-linecap="round"/>
<path d="M21.2121 26.1772H11.1111" stroke="#9497A1" stroke-linecap="round"/>
<path d="M65.6566 27.1123L75.7576 27.1123" stroke="#9497A1" stroke-linecap="round"/>
<path d="M17.1717 20.5679H11.1111" stroke="#9497A1" stroke-linecap="round"/>
<path d="M69.697 32.7217L75.7576 32.7217" stroke="#9497A1" stroke-linecap="round"/>
</svg>
