<svg width="476" height="417" viewBox="0 0 476 417" fill="none" xmlns="http://www.w3.org/2000/svg">
<path d="M191.097 374.909L59.8297 296.163L79.3491 286.776L55.874 273.365L77.7244 261.413L79.82 265.248L64.8214 273.436L88.7203 287.081L69.0361 296.587L191.121 369.851L327.709 290.658L329.899 294.446L191.097 374.909Z" fill="#352C23"/>
<path d="M353.138 284.047C366.607 291.811 388.504 291.787 402.066 283.952C415.629 276.141 415.699 263.507 402.231 255.72C388.763 247.955 366.866 247.979 353.303 255.814C339.741 263.648 339.67 276.283 353.138 284.047Z" fill="#EAEAEA"/>
<path d="M338.893 175.303C338.917 175.397 338.964 175.491 339.011 175.538C339.152 175.703 339.388 175.773 339.388 175.773C339.364 175.867 339.27 176.385 339.505 176.573C339.764 176.761 340.989 176.314 340.989 176.314C340.989 176.314 341.083 176.456 341.742 176.55C342.402 176.62 343.014 175.867 343.084 175.256C343.155 174.62 344.591 173.679 344.591 173.679C344.591 173.679 345.415 173.562 345.839 173.632C346.263 173.703 347.276 173.891 347.276 173.891C347.181 174.009 345.816 175.632 345.51 176.338C345.51 176.385 345.486 176.409 345.463 176.456C345.439 176.503 345.439 176.55 345.439 176.597C345.463 176.714 345.51 176.856 345.557 176.95C345.698 177.208 345.957 177.35 346.287 177.256C346.781 177.114 349.3 174.315 349.3 174.315L352.385 174.526C352.385 174.526 353.539 175.75 353.774 176.009C353.986 176.267 354.834 178.032 354.904 178.432C354.928 178.62 355.234 179.044 355.587 179.444C355.964 179.844 356.388 180.244 356.647 180.338C357.047 180.479 357.447 180.22 357.706 179.82C357.753 179.749 357.8 179.679 357.824 179.608C358.083 179.114 357.589 176.056 357.471 175.326C357.353 174.573 357.848 173.397 357.871 171.844C357.918 170.291 358.836 167.845 358.836 167.845C358.672 167.539 358.507 167.28 358.318 167.045C356.129 164.245 353.021 166.08 352.809 166.151C352.573 166.221 351.608 166.951 351.372 168.15C351.137 169.35 350.431 169.468 350.101 169.562C349.771 169.656 346.828 170.127 346.758 170.127C346.687 170.127 343.037 171.068 342.896 171.256C342.731 171.444 342.92 171.703 342.92 171.703C342.92 171.703 338.846 174.973 338.893 175.303Z" fill="#FAC5A8"/>
<path d="M345.557 176.95C345.698 177.208 345.957 177.35 346.287 177.255C346.781 177.114 349.3 174.315 349.3 174.315L352.385 174.526C352.385 174.526 353.539 175.75 353.774 176.009C353.986 176.267 354.834 178.032 354.904 178.432C354.928 178.62 355.234 179.044 355.587 179.444C355.399 178.855 355.305 178.338 355.305 178.338C355.305 178.338 354.151 174.785 353.962 174.267C353.798 173.726 353.044 172.691 352.597 172.762C352.149 172.832 350.713 173.232 349.795 173.891C348.9 174.573 346.805 176.456 346.357 176.879C346.122 177.067 345.769 177.067 345.557 176.95Z" fill="#FAC5A8"/>
<path d="M339.011 175.538C339.152 175.703 339.388 175.773 339.388 175.773C339.458 175.02 340.706 173.891 341.107 173.562C340.706 173.891 339.388 174.997 339.011 175.538Z" fill="#FAC5A8"/>
<path d="M339.388 175.773C339.364 175.867 339.27 176.385 339.506 176.573C339.765 176.761 340.989 176.314 340.989 176.314C340.989 176.314 341.083 176.456 341.742 176.55C342.402 176.62 343.014 175.867 343.085 175.256C343.155 174.62 344.591 173.679 344.591 173.679C344.591 173.679 345.416 173.562 345.839 173.632C346.263 173.703 347.276 173.891 347.276 173.891L348.688 171.703C348.688 171.703 347.252 171.75 346.875 171.774C346.499 171.797 344.285 172.997 344.026 173.303C343.767 173.609 342.92 174.644 342.755 175.209C342.59 175.773 342.26 176.079 341.884 176.103C341.507 176.126 340.942 176.009 340.965 175.938C340.965 175.867 341.342 174.573 341.342 174.573L344.073 171.491L341.742 173.538C341.742 173.538 340.377 175.162 340.377 175.303C340.4 175.444 340.447 176.314 340.212 176.338C340.024 176.362 339.317 176.667 339.388 175.773Z" fill="#FAC5A8"/>
<path d="M354.787 141.588C355.022 143.564 357.212 145.376 358.766 146.811C359.048 147.07 359.307 147.329 359.543 147.564C360.343 148.387 361.85 149.117 363.145 149.422C364.205 149.705 365.1 149.705 365.335 149.281C365.547 148.905 366.607 144.646 367.784 139.729C369.456 132.718 371.339 124.342 371.339 123.919C371.316 123.189 368.019 111.779 364.487 112.767C360.979 113.755 358.436 128.271 357.73 130.765C357.023 133.259 354.787 141.588 354.787 141.588Z" fill="#FF862A"/>
<path d="M350.76 167.68C350.925 167.586 354.48 165.445 356.27 166.48C357 166.903 357.589 167.303 358.059 167.727C358.742 168.362 359.119 169.021 359.119 169.797C359.143 171.068 364.37 157.281 364.37 157.281L363.145 149.211C363.145 149.211 362.604 147.023 360.814 144.976C360.461 144.576 360.084 144.176 359.637 143.823C358.436 142.811 356.859 141.941 354.81 141.611C353.68 148.67 352.95 158.175 352.715 159.516C352.385 161.28 350.807 167.445 350.76 167.68Z" fill="#FF862A"/>
<path d="M359.095 169.797C359.119 171.068 364.346 157.281 364.346 157.281L363.145 149.423C364.205 149.705 365.1 149.705 365.335 149.281C365.547 148.905 366.607 144.647 367.784 139.729C365.712 133.8 360.838 121.001 360.626 122.578C360.39 124.554 359.99 134.93 359.99 134.93L360.791 144.976L360.885 146.293L359.613 143.8L358.766 146.811L358.318 148.411C358.318 148.411 361.568 157.822 361.379 158.551C361.238 159.069 359.119 164.786 358.036 167.727C358.719 168.362 359.095 169.044 359.095 169.797Z" fill="#B87A56"/>
<path d="M358.813 266.542C358.813 266.542 357.494 266.918 357.471 267.718C357.447 268.495 358.13 270.306 359.072 270.777C360.014 271.247 361.85 271.93 364.77 271.153C367.713 270.353 370.539 268.565 371.857 266.471C373.199 264.354 376.237 264.048 376.519 264.095C376.802 264.119 382.194 261.695 382.829 260.848C383.465 260.001 381.911 257.013 381.911 257.013L371.127 261.413L358.813 266.542Z" fill="#3E362F"/>
<path d="M357.824 265.954C357.824 265.954 357.235 270.777 362.18 270.424C367.125 270.071 371.881 264.989 373.388 263.884C374.895 262.778 381.087 260.684 381.864 259.154C382.641 257.625 381.794 256.355 380.428 255.508C379.062 254.661 374.518 253.743 374.518 253.743C374.518 253.743 364.323 258.778 364.205 258.99C364.087 259.225 357.73 264.331 357.824 265.954Z" fill="#524B45"/>
<path d="M373.811 256.896C375.624 257.296 378.874 256.637 380.593 255.837C381.111 255.602 381.511 255.343 381.652 255.084C382.311 254.025 383.112 229.463 383.771 227.981C384.454 226.498 383.3 203.747 383.3 203.747L377.72 193.089L374.094 186.149C374.094 186.149 363.899 175.397 364.064 185.631C364.205 195.866 365.288 200.171 366.088 204.171C366.913 208.17 368.137 219.958 368.49 221.299C368.843 222.616 371.881 252.873 371.975 253.461C372.093 254.049 371.457 256.355 373.811 256.896Z" fill="#355FA1"/>
<path d="M380.616 255.814C381.134 255.578 381.535 255.319 381.676 255.061C382.335 254.002 383.136 229.439 383.795 227.957C384.478 226.475 383.324 203.724 383.324 203.724L377.744 193.066C377.061 192.948 376.661 192.901 376.661 192.901L378.45 210.382C378.45 210.382 378.921 219.817 380.428 226.522C381.935 233.251 379.463 242.709 379.627 246.12C379.745 248.426 380.263 253.014 380.616 255.814Z" fill="#6C8FC2"/>
<path d="M379.18 275.859C379.18 275.859 378.073 276.588 378.191 277.765C378.309 278.941 378.827 279.882 378.827 279.882C378.827 279.882 381.229 281.858 385.349 281.058C389.47 280.259 392.036 277.623 392.436 275.812C392.837 274 395.168 267.177 395.168 267.177C395.168 267.177 396.109 265.719 396.156 265.295C396.204 264.872 395.427 262.872 395.073 262.848C394.72 262.825 384.949 266.73 384.949 266.73L379.18 275.859Z" fill="#3E362F"/>
<path d="M378.497 277.765C378.497 277.765 378.685 280.729 383.866 280.329C389.022 279.929 391.848 276.776 392.577 273.859C393.307 270.965 394.084 267.201 394.791 266.024C395.497 264.848 395.332 263.46 394.932 262.425C394.532 261.389 393.095 257.884 393.095 257.79C393.072 257.696 385.726 257.743 384.148 262.778C382.57 267.812 378.615 274.047 378.521 275.271C378.403 276.471 378.497 277.765 378.497 277.765Z" fill="#524B45"/>
<path d="M383.23 226.051C384.596 234.098 384.454 258.425 384.454 258.425C384.454 258.425 386.668 261.248 389.446 260.825C390.976 260.59 392.578 259.931 393.637 259.202C394.485 258.637 395.003 258.002 394.909 257.508C394.744 256.355 398.252 242.803 398.958 236.639C399.665 230.475 398.252 225.322 398.276 223.11C398.276 220.899 401.949 200.242 402.443 196.242C402.938 192.243 402.066 183.843 402.066 183.843C402.066 183.843 401.548 183.773 400.63 183.679C394.414 183.02 370.091 180.691 369.715 185.02C369.314 190.007 371.386 194.995 373.6 196.43C375.813 197.889 378.78 198.266 378.78 198.266C378.78 198.266 381.864 218.005 383.23 226.051Z" fill="#355FA1"/>
<path d="M393.661 259.225C394.508 258.66 395.026 258.025 394.932 257.531C394.767 256.378 398.276 242.826 398.982 236.662C399.688 230.498 398.276 225.345 398.299 223.134C398.299 220.922 401.972 200.265 402.467 196.266C402.961 192.266 402.09 183.867 402.09 183.867C402.09 183.867 401.572 183.796 400.654 183.702C400.983 186.972 401.478 192.736 401.054 195.513C400.418 199.536 395.474 217.158 397.075 226.757C398.676 236.356 396.816 238.168 395.568 245.226C394.626 250.355 393.943 256.308 393.661 259.225Z" fill="#6C8FC2"/>
<path d="M363.805 185.019C364.346 186.384 366.819 190.831 369.102 190.76C371.363 190.69 375.389 192.689 376.472 192.525C377.555 192.36 388.175 193.419 394.155 191.537C400.136 189.654 403.715 184.572 403.809 183.937C403.927 183.302 402.796 169.562 402.749 169.303C402.702 169.044 400.536 158.41 400.795 154.669C401.054 150.905 405.881 123.942 404.562 122.084C403.244 120.225 397.569 115.096 393.92 112.014C390.27 108.908 385.09 107.003 385.09 107.003C385.09 107.003 375.625 107.285 371.033 109.708C366.442 112.132 364.582 111.402 362.321 115.472C360.061 119.543 359.92 132.553 360.744 137.918C361.144 140.529 361.662 145.023 362.039 149.611V149.634C362.463 154.528 362.722 159.539 362.58 162.504C362.392 166.433 362.769 174.856 363.216 180.243C363.404 182.761 363.616 184.596 363.805 185.019Z" fill="#F7551A"/>
<path d="M395.144 113.073C395.144 113.073 388.528 112.555 383.559 121.684C378.591 130.812 379.109 155.94 379.109 155.94L366.112 152.669C366.112 152.669 365.217 135.8 366.112 126.601C367.007 117.378 376.307 108.038 376.307 108.038L369.691 110.39C369.691 110.39 362.462 121.001 362.18 127.071C361.897 133.141 362.91 150.787 362.91 150.787L362.18 151.422C362.18 151.422 362.156 165.986 362.133 168.691C362.109 171.397 362.415 183.843 364.087 186.643C365.735 189.913 366.677 192.289 378.073 193.701C389.469 195.113 399.147 192.948 402.396 187.843C403.809 183.961 403.809 183.961 403.809 183.961C403.809 183.961 403.809 174.526 403.008 168.691C402.231 162.857 401.737 149.846 401.737 149.846C401.737 149.846 392.766 150.928 390.694 152.01C388.622 153.093 385.42 153.516 385.42 153.516C385.42 153.516 383.771 125.213 389.469 120.601C395.167 115.99 398.134 115.708 398.134 115.708L395.144 113.073Z" fill="#355FA1"/>
<path d="M363.193 180.243L381.087 171.538L396.133 161.257L391.212 140.529L387.963 157.045C387.963 157.045 371.434 165.892 368.137 166.221C364.864 166.527 363.899 166.174 363.899 166.174L361.992 149.634C362.416 154.528 362.675 159.539 362.533 162.504C362.368 166.433 362.745 174.856 363.193 180.243Z" fill="#B87A56"/>
<path d="M373.176 112.461C373.176 112.461 372.54 117.284 375.365 118.484C378.215 119.707 384.572 117.213 387.068 115.072C389.564 112.931 391.047 112.531 390.6 110.979C390.176 109.426 387.986 108.979 387.021 106.32C386.055 103.662 385.961 99.5444 385.019 97.6622C384.077 95.78 373.129 100.556 372.823 103.238C372.516 105.944 373.176 112.461 373.176 112.461Z" fill="#FAC5A8"/>
<path d="M348.688 181.608C348.712 181.608 348.759 181.608 348.782 181.608C349.112 181.561 352.126 178.385 352.126 178.385L354.928 176.714L353.091 178.244L351.773 179.961C351.773 179.961 350.595 182.455 350.454 183.49C350.336 184.337 350.972 184.596 351.49 184.643C351.631 184.667 351.749 184.667 351.843 184.643C352.314 184.62 353.28 182.22 353.28 182.22C353.28 182.22 354.01 180.832 356.105 179.302C357.895 178.008 358.695 178.032 358.907 178.055C358.931 178.055 358.954 178.079 358.954 178.079L356.976 180.761C356.976 180.761 354.316 184.126 353.915 185.302C353.609 186.149 354.057 186.384 354.575 186.431C354.763 186.455 354.951 186.455 355.116 186.455C355.775 186.455 358.624 182.196 358.931 181.914C359.213 181.632 361.497 179.349 361.638 179.208L361.167 180.502L360.908 181.208C360.908 181.208 358.954 183.631 358.554 185.043C358.154 186.455 359.001 186.69 359.543 186.619C359.708 186.596 359.872 186.431 360.014 186.219C360.343 185.749 360.579 185.043 360.649 184.973C360.767 184.855 363.734 180.761 363.734 180.761C363.734 180.761 365.453 180.22 366.23 179.749C367.03 179.279 368.985 177.514 368.985 177.514C371.033 176.291 371.928 175.209 372.116 174.315C372.658 171.962 368.655 170.691 368.655 170.691C368.655 170.691 364.911 171.891 363.875 172.056C362.839 172.221 356.082 173.538 355.893 173.679C355.705 173.821 351.419 175.938 351.184 176.056C350.949 176.15 348.359 179.349 348.359 179.349C348.359 179.349 347.958 180.62 347.888 180.973C347.841 181.255 348.335 181.608 348.688 181.608Z" fill="#FAC5A8"/>
<path d="M360.273 185.161C360.273 185.161 360.179 185.655 360.037 186.196C360.367 185.725 360.602 185.02 360.673 184.949C360.791 184.831 363.758 180.738 363.758 180.738C363.758 180.738 365.476 180.196 366.253 179.726C367.054 179.255 369.008 177.491 369.008 177.491C371.057 176.267 371.951 175.185 372.14 174.291C371.127 175.02 369.903 176.056 368.396 177.373C368.396 177.373 365.947 179.396 365.806 179.561C365.665 179.726 363.522 180.385 363.381 180.596C363.24 180.785 360.273 185.161 360.273 185.161Z" fill="#FAC5A8"/>
<path d="M355.258 186.031C355.069 186.055 354.881 186.361 354.575 186.455C354.763 186.478 354.951 186.478 355.116 186.478C355.776 186.478 358.625 182.22 358.931 181.938C359.213 181.655 361.497 179.373 361.638 179.232L361.168 180.526L362.156 179.138C362.156 179.138 361.662 178.808 361.285 179.067C360.909 179.35 358.436 181.82 358.318 182.126C358.201 182.408 355.611 185.984 355.258 186.031Z" fill="#FAC5A8"/>
<path d="M351.467 184.643C351.608 184.667 351.726 184.667 351.82 184.643C352.291 184.62 353.256 182.22 353.256 182.22C353.256 182.22 353.986 180.832 356.081 179.302C357.871 178.008 358.672 178.032 358.883 178.055C358.648 178.008 357.777 177.773 357.636 177.797C357.471 177.82 354.716 179.702 353.798 181.043C352.856 182.361 352.126 183.89 351.937 184.149C351.843 184.337 351.726 184.526 351.467 184.643Z" fill="#FAC5A8"/>
<path d="M348.688 181.608C348.712 181.608 348.759 181.608 348.782 181.608C349.112 181.561 352.126 178.385 352.126 178.385L354.928 176.714L356.576 175.75L358.248 175.02C358.248 175.02 356.435 175.444 355.611 175.75C354.787 176.056 351.372 178.173 351.255 178.361C351.161 178.526 349.395 181.02 348.688 181.608Z" fill="#FAC5A8"/>
<path d="M357.283 174.126C357.283 174.197 357.188 177.303 357.4 177.985C357.565 178.479 357.659 179.279 357.706 179.82C357.753 179.749 357.801 179.679 357.824 179.608C358.083 179.114 357.589 176.056 357.471 175.326C357.353 174.573 357.848 173.397 357.871 171.844C357.918 170.291 358.837 167.844 358.837 167.844C358.672 167.539 358.507 167.28 358.319 167.045C358.201 168.127 357.989 169.915 357.73 170.621C357.377 171.679 357.283 174.056 357.283 174.126Z" fill="#FAC5A8"/>
<path d="M407.411 155.94C407.341 156.198 407.294 156.457 407.223 156.693C407.246 156.551 407.294 156.434 407.317 156.293C407.364 156.175 407.388 156.057 407.411 155.94Z" fill="#FAC5A8"/>
<path d="M381.652 111.355C381.652 111.355 377.061 117.59 374.071 118.413C371.08 119.237 368.373 117.119 367.69 115.802C367.03 114.484 369.338 110.908 369.338 110.908C369.338 110.908 381.017 107.755 381.652 111.355Z" fill="#F8D1BC"/>
<path d="M390.458 158.222C390.458 158.222 395.497 163.045 399.759 165.445C400.159 165.68 400.56 165.868 400.936 166.056C401.501 166.315 402.066 166.292 402.608 166.009C402.679 165.962 402.749 165.939 402.796 165.892C402.867 165.845 402.938 165.798 402.985 165.751L403.15 165.609C403.197 165.562 403.267 165.515 403.314 165.468L403.479 165.304C403.573 165.209 403.668 165.092 403.762 164.974L403.95 164.739C404.044 164.598 404.138 164.48 404.256 164.315L405.857 161.045C405.904 160.927 405.951 160.81 405.999 160.692L406.517 159.186C406.564 159.069 406.587 158.928 406.634 158.786L406.752 158.386C406.846 158.081 406.94 157.775 407.011 157.445C407.035 157.351 407.058 157.257 407.082 157.163C407.105 157.022 407.152 156.881 407.199 156.74C407.223 156.716 407.223 156.669 407.223 156.645C407.247 156.504 407.294 156.387 407.317 156.245C407.341 156.128 407.364 156.01 407.388 155.893C407.458 155.61 407.529 155.351 407.576 155.069C407.906 153.516 408.188 151.916 408.4 150.364C408.447 150.081 408.471 149.799 408.494 149.517C408.683 148.034 408.777 146.623 408.824 145.282C408.824 145.093 408.824 144.929 408.824 144.741C408.824 144.246 408.824 143.776 408.824 143.329C408.518 134.741 406.611 123.472 404.515 122.013C402.42 120.578 397.663 120.249 394.32 124.154C390.976 128.06 391.683 137.588 390.976 143.117C390.294 148.693 390.458 158.222 390.458 158.222Z" fill="#FF862A"/>
<path d="M363.404 171.774C363.404 171.774 364.37 171.468 366.253 174.22C367.219 175.609 367.572 176.95 367.713 177.914C367.854 178.879 367.76 179.491 367.76 179.491C367.76 179.491 397.192 169.209 402.608 165.986C402.749 165.892 402.891 165.821 403.008 165.727C402.914 164.292 402.137 162.927 401.007 161.774C398.087 158.786 392.789 157.069 390.458 158.222C387.209 159.822 375.577 167.327 363.404 171.774Z" fill="#FF862A"/>
<path d="M367.76 179.491C367.76 179.491 397.192 169.209 402.608 165.986C402.678 165.939 402.749 165.915 402.796 165.868C402.867 165.821 402.937 165.774 402.985 165.727L403.149 165.586C403.196 165.539 403.267 165.492 403.314 165.445L403.479 165.28C403.573 165.186 403.667 165.068 403.762 164.951L403.95 164.715C404.044 164.574 404.138 164.457 404.256 164.292L405.857 161.022C405.904 160.904 405.951 160.786 405.998 160.669L406.516 159.163C406.564 159.045 406.587 158.904 406.634 158.763L406.752 158.363C406.846 158.057 406.94 157.751 407.011 157.422C407.034 157.328 407.058 157.234 407.082 157.14C407.105 156.998 407.152 156.857 407.199 156.716C407.223 156.693 407.223 156.646 407.223 156.622C407.246 156.481 407.293 156.363 407.317 156.222C407.341 156.104 407.364 155.987 407.388 155.869C407.458 155.587 407.529 155.328 407.576 155.046C407.906 153.493 408.188 151.893 408.4 150.34C408.447 150.058 408.471 149.776 408.494 149.493C408.683 148.011 408.777 146.599 408.824 145.258C408.824 145.07 408.824 144.905 408.824 144.717C408.824 144.223 408.824 143.752 408.824 143.305C408.518 134.718 406.611 123.448 404.515 121.99C405.575 124.389 407.388 138.482 406.775 142.694C406.257 146.341 402.396 156.834 400.983 161.704C400.771 162.433 400.606 163.045 400.512 163.492C400.371 164.245 400.088 164.857 399.712 165.374C398.417 167.092 395.78 167.75 391.683 169.75C386.974 172.056 371.198 176.809 367.666 177.844C367.854 178.879 367.76 179.491 367.76 179.491Z" fill="#B87A56"/>
<path d="M371.622 116.296C371.622 116.296 374.188 116.625 374.942 116.178C375.695 115.731 381.77 111.496 382.806 110.367C383.842 109.238 384.007 106.955 383.936 106.485C383.866 106.014 384.125 99.8737 382.83 96.7446C381.511 93.6154 380.875 88.4394 377.791 87.1925C374.706 85.9455 363.499 87.0278 363.687 94.3683C363.875 101.709 364.864 101.568 365.335 103.756C365.806 105.944 366.112 107.426 366.818 109.214C367.525 110.979 369.668 115.496 371.622 116.296Z" fill="#FAC5A8"/>
<path d="M377.602 95.0507C377.626 95.1448 378.874 99.7797 379.298 100.321C379.722 100.885 380.993 101.685 381.017 101.921C381.064 102.156 381.417 102.885 381.417 102.885L382.618 102.368C382.618 102.368 382.947 98.4386 384.219 99.8268C385.49 101.215 386.691 105.167 386.691 105.167C386.691 105.167 387.986 98.4151 388.363 96.2035C388.74 93.9684 389.587 88.2748 385.702 82.3224C381.817 76.3699 369.338 78.2521 366.324 83.5222C363.31 88.7924 363.31 91.3098 363.334 93.3097C363.357 95.3095 363.687 95.2154 363.687 95.2154C363.687 95.2154 364.841 96.4153 369.597 96.0624C374.4 95.7095 377.32 94.0155 377.602 95.0507Z" fill="#4A2727"/>
<path d="M383.559 103.121C383.559 103.121 383.348 104.838 384.501 104.697C385.679 104.556 387.633 101.779 387.233 99.215C386.809 96.6505 384.384 97.9916 384.03 98.8621C383.677 99.7326 383.607 101.262 383.654 101.732C383.701 102.203 383.559 103.121 383.559 103.121Z" fill="#FFD4BD"/>
<path d="M368.773 104.391C368.773 104.391 367.972 108.414 368.019 108.767C368.066 109.12 370.068 108.908 370.492 108.391C370.916 107.873 368.561 103.379 368.773 104.391Z" fill="#FFD4BD"/>
<path d="M368.066 96.5093C368.066 96.5093 367.643 100.838 367.949 101.709C368.255 102.579 376.708 101.897 376.92 102.462C377.132 103.026 378.097 104.532 377.791 105.732C377.461 106.932 372.799 107.403 372.823 107.779C372.846 108.132 375.413 110.932 376.095 110.626C376.778 110.343 380.687 107.779 380.781 105.544C380.875 103.332 380.263 101.991 379.91 101.779C379.557 101.568 378.544 100.697 377.814 99.5209C377.084 98.3445 377.202 95.6388 376.001 95.5447C374.777 95.4506 371.481 96.674 368.066 96.5093Z" fill="#FFD4BD"/>
<path d="M338.187 299.739H276.309L245.252 282.87L248.972 260.472L324.224 257.743L338.187 299.739Z" fill="#EAEAEA"/>
<path d="M364.935 284.305L338.187 299.739V220.122L364.935 204.688V284.305Z" fill="#95938F"/>
<path d="M286.41 269.859L338.187 299.739V220.122L286.41 190.243V269.859Z" fill="#7A746E"/>
<path d="M364.935 204.688L338.187 220.122L293.968 194.595L286.41 190.243L293.874 185.937L313.158 174.809L364.935 204.688Z" fill="#F7F7F6"/>
<path d="M279.417 191.466L340.424 226.663V204.594L279.417 169.421V191.466Z" fill="#8C8782"/>
<path d="M371.928 197.96L340.424 204.594L288.317 174.55L279.417 169.421L288.223 164.339L310.921 162.786L371.928 197.96Z" fill="#E1E1DC"/>
<path d="M344.073 183.914L331.17 184.243L321.422 178.597L317.985 176.62L330.864 176.314L344.073 183.914Z" fill="#FF862A"/>
<path d="M323.329 171.656L308.142 172.95L298.395 167.327L313.299 165.892L323.329 171.656Z" fill="#8C8782"/>
<path d="M315.606 159.892C315.606 159.892 311.18 162.316 309.061 164.668C306.918 167.021 306.565 167.845 306.565 167.845H310.238C310.238 167.845 313.911 162.504 316.054 161.492C318.197 160.481 318.197 160.481 318.197 160.481L315.606 159.892Z" fill="#322920"/>
<path d="M321.634 163.562C321.634 163.562 317.208 165.986 315.089 168.339C312.946 170.691 312.593 171.515 312.593 171.515H316.266C316.266 171.515 319.939 166.174 322.082 165.162C324.224 164.151 324.224 164.151 324.224 164.151L321.634 163.562Z" fill="#322920"/>
<path d="M311.698 159.163L322.294 165.468L326.791 165.774L327.238 163.233L314.288 156.245L312.287 157.469L311.698 159.163Z" fill="#CC1F15"/>
<path d="M332.63 182.173C330.04 181.679 327.379 180.361 326.72 179.208C326.602 179.02 326.555 178.832 326.555 178.691C326.555 178.644 327.003 177.208 327.003 177.185C327.191 176.503 328.156 177.632 330.181 178.008C332.771 178.502 334.231 178.502 334.89 179.655C335.008 179.867 336.703 179.961 336.68 180.149C336.68 180.196 336.232 181.679 336.209 181.726C335.95 182.314 334.584 182.549 332.63 182.173Z" fill="#CC1F15"/>
<path d="M333.077 180.737C330.487 180.243 327.827 178.926 327.167 177.773C326.508 176.62 328.062 176.079 330.652 176.573C333.242 177.067 335.903 178.385 336.562 179.538C337.245 180.667 335.667 181.208 333.077 180.737Z" fill="#FF2C2A"/>
<path d="M342.873 186.831L348.17 190.007L352.668 190.313L352.974 188.313L347.676 185.325L343.461 185.137L342.873 186.831Z" fill="#8C8782"/>
<path d="M343.461 185.137L348.806 188.313H352.973L347.676 185.325L343.461 185.137Z" fill="#AAA6A2"/>
<path d="M352.503 192.007L357.8 195.183L362.298 195.489L362.58 193.489L357.282 190.501L353.091 190.313L352.503 192.007Z" fill="#8C8782"/>
<path d="M353.091 190.313L358.413 193.489H362.58L357.282 190.501L353.091 190.313Z" fill="#AAA6A2"/>
<path d="M335.408 187.043L340.706 190.243L345.203 190.525L345.486 188.525L340.212 185.537L335.997 185.349L335.408 187.043Z" fill="#8C8782"/>
<path d="M335.997 185.349L341.342 188.525H345.486L340.212 185.537L335.997 185.349Z" fill="#AAA6A2"/>
<path d="M345.039 192.219L350.336 195.419L354.834 195.701L355.116 193.701L349.818 190.713L345.627 190.525L345.039 192.219Z" fill="#8C8782"/>
<path d="M345.627 190.525L350.949 193.725L355.116 193.701L349.818 190.713L345.627 190.525Z" fill="#AAA6A2"/>
<path d="M371.928 208.5L340.424 226.663V204.594L349.23 199.512L371.928 197.96V208.5Z" fill="#ADABA8"/>
<path d="M283.396 304.868L175.227 367.922L64.4209 301.716L170.659 239.815L283.396 304.868Z" fill="#EAEAEA"/>
<path d="M88.4848 300.727L84.0347 303.292V284.376L88.4848 281.811V300.727Z" fill="#827C5A"/>
<path d="M80.2202 301.104L84.0346 303.292V284.376L80.2202 282.188V301.104Z" fill="#474536"/>
<path d="M188.318 358.346L183.892 360.91V341.994L188.318 339.43V358.346Z" fill="#827C5A"/>
<path d="M180.077 358.699L183.892 360.911V341.995L180.077 339.783V358.699Z" fill="#474536"/>
<path d="M276.615 306.868L272.188 309.432V290.516L276.615 287.952V306.868Z" fill="#827C5A"/>
<path d="M268.374 307.221L272.188 309.432V290.516L268.374 288.305V307.221Z" fill="#474536"/>
<path d="M110.971 74.3466V257.908L86.7422 271.883V88.3454L110.971 74.3466Z" fill="#D8CFB6"/>
<path d="M70.8018 262.683L86.7422 271.883V88.3218L70.8018 79.1226V262.683Z" fill="#B28B64"/>
<path d="M110.971 74.3466L86.7422 88.3218L77.6536 83.0752L70.8018 79.1226L77.5829 75.2171L95.0538 65.1473L110.971 74.3466Z" fill="#F7F7F6"/>
<path d="M113.655 159.281L110.971 160.88L86.7422 175.303V94.0626L88.9319 90.4629L110.971 151.799L113.655 159.281Z" fill="#A26F4A"/>
<path d="M124.345 149.846L102.965 162.174V98.5798L124.345 86.2515V149.846Z" fill="#E8E8E8"/>
<path d="M111.536 128.53C111.748 130.271 110.712 132.389 109.252 133.259C107.768 134.13 106.403 133.4 106.191 131.659C105.979 129.918 107.015 127.801 108.475 126.93C109.935 126.06 111.324 126.789 111.536 128.53Z" fill="#689B31"/>
<path d="M110.029 128.86C110.17 129.942 109.534 131.259 108.616 131.801C107.698 132.342 106.85 131.895 106.709 130.812C106.568 129.73 107.203 128.413 108.122 127.871C109.04 127.33 109.888 127.777 110.029 128.86Z" fill="#86C95A"/>
<path d="M121.095 95.7096L106.214 104.321V103.332L121.095 94.7214V95.7096Z" fill="#8C8782"/>
<path d="M121.095 100.509L106.214 109.097V108.108L121.095 99.5209V100.509Z" fill="#8C8782"/>
<path d="M121.095 105.309L106.214 113.896V112.908L121.095 104.321V105.309Z" fill="#8C8782"/>
<path d="M121.095 110.085L106.214 118.672V117.684L121.095 109.097V110.085Z" fill="#8C8782"/>
<path d="M88.9319 154.081L102.965 162.174V98.5799L88.9319 90.4629V154.081Z" fill="#8C8782"/>
<path d="M124.345 86.2515L102.965 98.5798L94.9596 93.9449L88.9319 90.4629L94.9125 87.0279L110.288 78.1345L124.345 86.2515Z" fill="#F7F7F6"/>
<path d="M93.3822 215.582L88.626 218.334V155.375L93.3822 152.646V215.582Z" fill="#E8E8E8"/>
<path d="M84.5525 215.982L88.6259 218.334V155.375L84.5525 153.046V215.982Z" fill="#8C8782"/>
<path d="M93.3821 152.646L88.6259 155.375L86.3184 154.034L84.5525 153.046L86.2949 152.034L89.3087 150.293L93.3821 152.646Z" fill="#F7F7F6"/>
<path d="M164.396 178.22L159.64 180.949V118.014L164.396 115.261V178.22Z" fill="#E8E8E8"/>
<path d="M155.59 178.597L159.64 180.949V118.014L155.59 115.661V178.597Z" fill="#8C8782"/>
<path d="M164.396 115.261L159.64 118.014L157.332 116.672L155.59 115.661L157.309 114.649L160.323 112.908L164.396 115.261Z" fill="#F7F7F6"/>
<path d="M184.269 343.406L73.439 279.482V238.097L184.269 302.045V343.406Z" fill="#B76F3F"/>
<path d="M184.269 315.338L73.439 251.414V238.097L184.269 302.045V315.338Z" fill="#8B4A36"/>
<path d="M283.396 244.262V285.646L184.269 343.406V302.045L283.396 244.262Z" fill="#D9AF6A"/>
<path d="M283.396 244.262V285.646L184.269 343.406V302.045L283.396 244.262Z" fill="#D9AF6A"/>
<path d="M283.396 244.262V257.555L184.269 315.338V302.045L283.396 244.262Z" fill="#B76F3F"/>
<path d="M283.396 244.262L184.269 302.045L73.439 238.097L172.59 180.338L283.396 244.262Z" fill="#EFD995"/>
<path d="M186.058 308.562L64.4443 238.403V226.945L186.058 297.104V308.562Z" fill="#5B5450"/>
<path d="M300.655 230.333V241.791L186.058 308.562V297.104L300.655 230.333Z" fill="#95938F"/>
<path d="M300.655 230.333L186.058 297.104L64.4209 226.945L179.018 160.151L300.655 230.333Z" fill="#818181"/>
<path d="M177.982 174.197L170.8 172.95L78.501 225.84L179.441 283.905H186.458L167.221 268.73L92.6755 225.84L177.982 174.197Z" fill="#736D6A"/>
<path d="M89.12 227.887L186.458 283.905L278.333 230.757L278.168 226.569L181.278 172.362L181.184 172.409L177.982 174.173L88.9788 223.675L89.12 227.887ZM181.207 176.903L203.693 189.843L206.307 191.348V191.372L207.673 192.148L208.968 192.878L228.04 203.865L226.721 204.618L234.797 209.276L155.425 255.202L147.349 250.543L143.652 252.684L96.843 225.722L181.207 176.903ZM185.187 270.801L163.972 258.59L162.677 257.86L242.073 211.935L264.583 224.875L185.187 270.801Z" fill="#7B7F8B"/>
<path d="M178.358 180.808L196.606 191.396L121.189 235.274L125.145 241.368L206.189 198.289L228.322 210.97L150.763 255.178L157.238 258.331L237.529 214.57L257.896 226.945L182.55 270.777L186.034 276.4L264.583 226.381L182.196 176.503L178.358 180.808Z" fill="#736D6A"/>
<path d="M186.317 279.717L278.169 226.569L180.831 170.574L88.9553 223.699L186.317 279.717ZM181.207 176.926L203.717 189.866L124.321 235.768L104.401 224.31L103.106 223.581L101.835 222.828L181.207 176.926ZM185.187 270.801L163.972 258.59L162.677 257.86L242.073 211.935L264.583 224.875L185.187 270.801ZM155.448 255.178L147.372 250.52L131.573 241.438L210.969 195.513L226.768 204.594L234.844 209.253L155.448 255.178Z" fill="#C5C7CF"/>
<path d="M137.742 237.886L131.549 241.462L147.372 250.543L155.448 255.178L229.405 212.405L237.034 210.288L241.979 208.9V209.3L155.59 259.272L143.887 252.543L125.145 241.768V241.368L137.742 237.886Z" fill="#9497A1"/>
<path d="M155.59 259.296V258.872L125.145 241.368V241.768L155.59 259.296Z" fill="#DBDCE0"/>
<path d="M144.217 252.355L155.566 258.896L241.955 208.923L240.66 208.194L211.511 191.419L125.122 241.391L144.217 252.355ZM155.448 255.178L147.372 250.52L131.573 241.438L210.969 195.513L226.768 204.594L234.845 209.253L155.448 255.178Z" fill="#E8E9F0"/>
<path d="M155.59 257.39L160.558 256.002L161.9 255.649L170.8 253.155L162.677 257.86L163.972 258.59L185.187 270.8L257.213 229.157L262.181 227.769L272.423 224.922L272.4 226.428L186.011 276.4L155.943 259.084L155.59 258.896V257.39Z" fill="#9497A1"/>
<path d="M162.677 259.343L163.972 258.59L185.187 270.801L263.288 225.628L264.583 226.381L185.187 272.306L162.677 259.343Z" fill="#FFFEFF"/>
<path d="M94.7004 222.358L109.911 218.146L109.958 218.123L101.835 222.828L103.106 223.581L104.401 224.31L124.321 235.768L196.3 194.148L201.292 192.76L206.331 191.348V191.372L211.534 189.913V191.395L125.145 241.368L97.3846 225.416L94.724 223.863L94.7004 222.358Z" fill="#9497A1"/>
<path d="M125.145 241.368V239.885L94.7241 222.358V223.863L125.145 241.368Z" fill="#DBDCE0"/>
<path d="M101.811 224.334L103.106 223.581L104.401 224.31L124.321 235.768L202.422 190.596L203.717 191.348L124.321 237.274L101.811 224.334Z" fill="#FFFEFF"/>
<path d="M162.677 259.343L242.073 213.441L264.583 226.381L263.288 227.134L242.073 214.923L163.972 260.096L162.677 259.343Z" fill="#9497A1"/>
<path d="M131.573 241.438L210.946 195.536L234.821 209.276L233.526 210.006L210.946 197.019L132.868 242.191L131.573 241.438Z" fill="#9497A1"/>
<path d="M233.526 210.029L234.821 209.276L210.946 195.536V197.019L233.526 210.029Z" fill="#DBDCE0"/>
<path d="M101.811 224.334L181.184 178.408L203.717 191.372L202.422 192.101L181.184 179.891L103.106 225.063L101.811 224.334Z" fill="#9497A1"/>
<path d="M156.885 258.119L157.238 258.308L186.011 274.871L272.423 224.922L241.979 207.418L155.59 257.39L156.885 258.119ZM242.073 211.935L264.583 224.875L185.187 270.801L163.972 258.59L162.677 257.861L242.073 211.935Z" fill="#F4F5FA"/>
<path d="M98.6797 224.663L125.145 239.886L211.534 189.913L181.16 172.432L181.09 172.385L94.7004 222.358L98.6797 224.663ZM203.717 189.866L124.321 235.768L104.401 224.31L103.106 223.581L101.835 222.828L181.207 176.926L203.717 189.866Z" fill="#F4F5FA"/>
<path d="M101.811 222.828L181.184 176.926H181.207L101.835 222.828H101.811Z" fill="#62A6BD"/>
<path d="M162.677 257.861L242.073 211.935L264.583 224.899L263.288 225.628L242.073 213.441L163.972 258.613L162.677 257.861Z" fill="#9497A1"/>
<path d="M263.288 225.652L264.583 224.899L242.073 211.935V213.441L263.288 225.652Z" fill="#DBDCE0"/>
<path d="M101.811 222.828L181.184 176.926L203.717 189.866L202.422 190.619L181.184 178.409L103.106 223.581L101.811 222.828Z" fill="#9497A1"/>
<path d="M202.422 190.619L203.717 189.866L181.184 176.903V178.408L202.422 190.619Z" fill="#DBDCE0"/>
<path d="M103.106 223.581L181.207 178.408L202.398 190.619L201.103 191.372L181.184 179.891L104.401 224.334L103.106 223.581Z" fill="#9497A1"/>
<path d="M132.868 242.191L210.946 197.019L233.526 210.006L232.231 210.759L210.946 198.501L134.14 242.944L132.868 242.191Z" fill="#9497A1"/>
<path d="M163.972 258.613L242.073 213.441L263.288 225.628L261.993 226.381L242.049 214.923L165.267 259.343L163.972 258.613Z" fill="#9497A1"/>
<path d="M186.034 276.4V274.894L155.59 257.39V258.872L186.034 276.4Z" fill="#DBDCE0"/>
<path d="M167.104 214.57H167.763L174.45 210.712L174.403 210.194L172.943 209.394L172.213 209.559L167.104 214.57Z" fill="#C5C7CF"/>
<path d="M167.103 214.57V214.1L165.479 213.158V213.629L167.103 214.57Z" fill="#C5C7CF"/>
<path d="M173.72 210.265L167.103 214.1L165.479 213.158L172.095 209.323L173.72 210.265Z" fill="#FDFDFE"/>
<path d="M167.104 214.57V214.1L173.72 210.265V210.735L167.104 214.57Z" fill="#9497A1"/>
<path d="M169.717 212.217L170.588 211.723V210.241L169.717 210.735V212.217Z" fill="#9497A1"/>
<path d="M169.717 210.735L170.588 210.241L169.67 209.723L168.799 210.217L169.717 210.735Z" fill="#A21B00"/>
<path d="M169.717 210.735V212.217L168.799 211.7V210.217L169.717 210.735Z" fill="#C5C7CF"/>
<path d="M163.713 206.265L164.749 205.677L170.73 209.088L169.693 209.676L163.713 206.265Z" fill="#FDFDFE"/>
<path d="M169.693 209.676L170.729 209.088V210.359L169.693 210.97V209.676Z" fill="#9497A1"/>
<path d="M169.693 209.676L163.713 206.265V207.559L169.693 210.97V209.676Z" fill="#C5C7CF"/>
<path d="M201.127 234.121H201.763L208.45 230.263L208.426 229.745L206.943 228.945L206.213 229.11L201.127 234.121Z" fill="#C5C7CF"/>
<path d="M201.127 234.121V233.651L199.479 232.71V233.18L201.127 234.121Z" fill="#C5C7CF"/>
<path d="M207.743 229.816L201.127 233.651L199.479 232.71L206.119 228.875L207.743 229.816Z" fill="#FDFDFE"/>
<path d="M201.127 234.121V233.651L207.743 229.816V230.286L201.127 234.121Z" fill="#9497A1"/>
<path d="M203.74 231.769L204.612 231.275V229.792L203.74 230.286V231.769Z" fill="#9497A1"/>
<path d="M203.739 230.286L204.61 229.792L203.668 229.251L202.821 229.769L203.739 230.286Z" fill="#A21B00"/>
<path d="M203.74 230.286V231.769L202.799 231.227L202.822 229.769L203.74 230.286Z" fill="#C5C7CF"/>
<path d="M202.681 228.639L203.717 228.051L209.698 231.463L208.662 232.051L202.681 228.639Z" fill="#FDFDFE"/>
<path d="M208.661 232.051L209.697 231.463V232.733L208.661 233.321V232.051Z" fill="#9497A1"/>
<path d="M208.662 232.051L202.681 228.64V229.91L208.662 233.321V232.051Z" fill="#C5C7CF"/>
<path d="M187.118 211.088L185.446 211.064C184.433 209.7 182.973 208.406 181.043 207.3C172.967 202.642 159.922 202.618 151.917 207.253C150.127 208.288 148.785 209.464 147.796 210.711L145.936 210.688V215.629C145.936 215.652 145.936 215.652 145.936 215.676V215.699C145.96 218.734 147.985 221.769 152.011 224.075C160.087 228.733 173.131 228.757 181.137 224.122C185.163 221.793 187.165 218.758 187.118 215.699V211.088Z" fill="#736D6A"/>
<path d="M181.137 219.511C173.108 224.146 160.064 224.122 152.011 219.464C143.935 214.805 143.911 207.276 151.917 202.665C159.946 198.03 172.99 198.054 181.043 202.712C189.095 207.347 189.143 214.876 181.137 219.511Z" fill="#D6D6D6"/>
<path d="M178.853 207.677H177.841C177.228 206.853 176.357 206.1 175.203 205.418C170.377 202.642 162.559 202.618 157.78 205.394C156.72 206.006 155.896 206.712 155.307 207.465H154.201V210.406V210.429C154.224 212.241 155.425 214.053 157.827 215.441C162.654 218.217 170.471 218.24 175.251 215.464C177.652 214.076 178.853 212.241 178.829 210.429V207.677H178.853Z" fill="#736D6A"/>
<path d="M175.251 212.711C170.447 215.488 162.654 215.464 157.827 212.688C153 209.912 152.976 205.394 157.78 202.642C162.583 199.865 170.377 199.889 175.204 202.665C180.03 205.441 180.054 209.959 175.251 212.711Z" fill="#E7E7E7"/>
<path d="M154.366 202.9L149.633 205.653V185.419L154.366 182.69V202.9Z" fill="#E8E8E8"/>
<path d="M145.56 203.3L149.633 205.653V185.42L145.56 183.067V203.3Z" fill="#8C8782"/>
<path d="M154.366 182.69L149.633 185.419L147.302 184.078L145.56 183.067L147.302 182.079L150.316 180.338L154.366 182.69Z" fill="#F7F7F6"/>
<path d="M119.094 213.229L122.979 215.229L215.372 164.88L211.817 162.669L119.094 213.229Z" fill="#FCCC45"/>
<path d="M122.979 215.229V218.193L215.372 167.845V164.88L122.979 215.229Z" fill="#A64900"/>
<path d="M119.094 213.229V216.193L122.979 218.193V215.229L119.094 213.229Z" fill="#CE7400"/>
<path d="M211.535 165.798L205.107 169.515V162.033L211.535 158.316V165.798Z" fill="#E8E8E8"/>
<path d="M143.605 134.059L205.107 169.515V162.033L143.605 126.554V134.059Z" fill="#8C8782"/>
<path d="M211.535 158.316L205.107 162.033L147.043 128.53L143.605 126.554L147.019 124.601L150.057 122.837L211.535 158.316Z" fill="#F7F7F6"/>
<path d="M121.661 190.196L129.125 194.078L196.418 157.398L189.566 153.116L121.661 190.196Z" fill="#F7F7F6"/>
<path d="M129.125 194.078V199.771L196.418 163.092V157.398L129.125 194.078Z" fill="#E8E8E8"/>
<path d="M121.661 190.196V195.889L129.125 199.771V194.078L121.661 190.196Z" fill="#CE7400"/>
<path d="M141.392 203.112L134.94 206.829V199.324L141.392 195.607V203.112Z" fill="#E8E8E8"/>
<path d="M73.439 171.35L134.94 206.829V199.324L73.439 163.845V171.35Z" fill="#8C8782"/>
<path d="M141.392 195.607L134.94 199.324L76.8766 165.845L73.439 163.868L76.8531 161.892L79.8905 160.127L141.392 195.607Z" fill="#F7F7F6"/>
<path d="M171.648 207.7L166.892 210.453V190.219L171.648 187.49V207.7Z" fill="#E8E8E8"/>
<path d="M162.818 208.1L166.892 210.453V190.219L162.818 187.866V208.1Z" fill="#8C8782"/>
<path d="M171.648 187.49L166.892 190.219L164.561 188.878L162.818 187.866L164.561 186.878L167.575 185.137L171.648 187.49Z" fill="#F7F7F6"/>
<path d="M175.886 192.054L166.562 197.442V182.479L175.886 177.091V192.054Z" fill="#E8E8E8"/>
<path d="M144.123 184.478L166.562 197.442V182.479L144.123 169.515V184.478Z" fill="#8C8782"/>
<path d="M175.886 177.091L166.562 182.479L147.561 171.515L144.123 169.515L147.514 167.562L153.447 164.151L175.886 177.091Z" fill="#F7F7F6"/>
<path d="M163.148 173.185L158.416 175.914V168.574L163.148 165.821V173.185Z" fill="#E8E8E8"/>
<path d="M154.342 173.562L158.415 175.914V168.574L154.342 166.221V173.562Z" fill="#8C8782"/>
<path d="M163.148 165.821L158.415 168.574L156.084 167.233L154.342 166.221L156.084 165.233L159.098 163.492L163.148 165.821Z" fill="#F7F7F6"/>
<path d="M119.094 182.384L122.979 184.408L215.372 134.059L211.817 131.848L119.094 182.384Z" fill="#FCCC45"/>
<path d="M122.979 184.408V187.372L215.372 137.024V134.059L122.979 184.408Z" fill="#A64900"/>
<path d="M119.094 182.384V185.349L122.979 187.372V184.408L119.094 182.384Z" fill="#CE7400"/>
<path d="M165.197 168.903L158.745 172.621V165.139L165.197 161.422V168.903Z" fill="#E8E8E8"/>
<path d="M145.56 165.021L158.745 172.621V165.139L145.56 157.516V165.021Z" fill="#8C8782"/>
<path d="M165.197 161.422L158.745 165.139L148.997 159.516L145.56 157.516L148.95 155.563L152.011 153.799L165.197 161.422Z" fill="#F7F7F6"/>
</svg>
