<svg width="246" height="408" viewBox="0 0 246 408" fill="none" xmlns="http://www.w3.org/2000/svg">
<path d="M0.423584 124.259V374.41L12.0955 380.909L222.168 256.585L225.02 7.32824L213.348 0.807861L0.423584 124.259ZM61.6574 132.611L167.423 71.289V205.949L61.6574 267.271V132.611Z" fill="#AFAFAF"/>
<path d="M12.0955 130.801V380.909L225.02 257.436V7.32837L12.0955 130.801ZM167.423 205.927L61.6574 267.271V132.611L167.423 71.2891V205.927Z" fill="#EAEAEA"/>
<path d="M177.962 64.9866V212.055L167.423 205.927V71.2671L177.962 64.9866Z" fill="#8E8E8E"/>
<path d="M12.1172 130.801V380.931L0.423584 374.432V124.281L12.1172 130.801Z" fill="#8E8E8E"/>
<path d="M61.6575 272.919L91.0767 260.62L70.063 277.782V284.346L61.6575 279.505V272.919Z" fill="#B57745"/>
<path d="M70.063 277.782L176.547 211.205L180.706 213.625V220.189L70.063 284.346V277.782Z" fill="#CDA483"/>
<path d="M167.423 205.927L180.706 213.625L70.063 277.782L61.6575 272.919V267.271L167.423 205.927Z" fill="#FFCB9E"/>
<path d="M190.571 326.848C203.027 334.045 223.278 334.023 235.821 326.761C248.364 319.521 248.429 307.811 235.973 300.592C223.518 293.396 203.266 293.418 190.723 300.68C178.18 307.92 178.115 319.63 190.571 326.848Z" fill="#EAEAEA"/>
<path d="M53.5286 406.909C71.1955 406.813 85.4725 398.456 85.4172 388.243C85.3618 378.03 70.9951 369.828 53.3282 369.924C35.6612 370.02 21.3842 378.378 21.4396 388.591C21.4949 398.804 35.8617 407.005 53.5286 406.909Z" fill="#EAEAEA"/>
<path d="M172.584 164.035C172.889 165.082 178.18 171.166 178.354 171.646C178.528 172.126 181.163 180.042 182.666 183.618C184.168 187.195 187.936 196.245 191.572 196.419C195.209 196.594 198.432 194.718 201.567 193.301C204.703 191.883 207.708 188.067 207.708 188.067C209.145 185.516 208.209 183.924 206.576 182.942C205.378 182.223 203.767 181.852 202.438 181.677C201.045 181.481 199.934 181.503 199.782 181.568C199.303 181.808 194.708 184.97 194.708 184.97C194.708 184.97 187.849 177.272 186.346 173.827C185.235 171.275 183.994 168.702 183.363 167.045C183.123 166.456 182.971 165.976 182.927 165.649C182.731 164.406 179.835 161.615 179.661 161.309C179.552 161.113 176.612 161.855 174.565 162.683C173.346 163.163 172.475 163.665 172.584 164.035Z" fill="#FAC5A8"/>
<path d="M178.333 157.057C178.333 157.057 177.636 157.646 178.245 158.867C178.855 160.088 179.508 160.873 179.508 160.873L180.14 161.92L180.184 164.297C180.184 164.297 180.576 167.023 181.076 167.655C181.577 168.288 182.797 168.353 183.102 167.961C183.406 167.568 182.753 161.397 182.557 160.96C182.361 160.524 181.185 159.914 180.423 158.889C179.683 157.842 179.53 156.337 178.333 157.057Z" fill="#FAC5A8"/>
<path d="M199.847 182.353C200.457 182.113 201.219 182.179 202.417 181.677C201.023 181.481 199.913 181.503 199.76 181.568C199.281 181.808 194.686 184.97 194.686 184.97C194.686 184.97 187.827 177.272 186.324 173.827C185.214 171.275 183.973 168.702 183.341 167.045C183.973 169.073 185.192 172.78 186.128 174.873C187.457 177.839 193.293 184.883 193.293 184.883L194.011 186.78L194.381 189.593L194.904 185.952C194.904 185.93 196.668 183.618 199.847 182.353Z" fill="#F8D1BC"/>
<path d="M172.584 164.035C172.889 165.082 178.18 171.166 178.354 171.646C178.528 172.126 181.163 180.042 182.666 183.618C184.168 187.195 187.936 196.245 191.572 196.419C195.209 196.594 198.432 194.718 201.567 193.301C204.703 191.883 207.708 188.067 207.708 188.067C209.145 185.516 208.209 183.924 206.576 182.942C206.554 183.488 206.51 184.447 206.445 186.061C206.445 186.061 205.574 189.179 200.892 192.036C196.21 194.893 193.924 195.176 192.901 195.416C191.05 195.83 189.547 194.108 187.195 190.553C184.843 186.998 181.969 180.107 181.163 177.447C180.358 174.786 179.378 168.506 179.378 168.506C179.378 168.506 175.741 165.802 174.565 162.683C173.346 163.163 172.475 163.665 172.584 164.035Z" fill="#F8D1BC"/>
<path d="M199.063 181.59C199.063 181.59 198.366 183.836 200.914 185.297C203.484 186.758 205.77 189.681 207.338 189.506C208.906 189.332 216.048 172.322 214.96 171.537C213.871 170.774 214.197 169.269 213.697 169.269C213.196 169.269 205.356 175.31 204.529 176.356C203.68 177.403 199.063 181.59 199.063 181.59Z" fill="#FF862A"/>
<path d="M80.4282 264.938C80.4282 264.938 80.4718 265.265 80.5807 265.832C80.9944 268.165 82.2139 274.38 83.6293 274.795C83.7817 274.838 83.9559 274.817 84.1301 274.686C84.1301 274.686 84.1301 274.686 84.1519 274.664C86.09 273.225 87.2223 270.804 87.8538 267.882C88.4853 264.96 88.5942 257.131 88.5942 257.131L91.8388 254.885C91.8388 254.885 92.6445 254.056 93.472 253.097C94.3866 252.028 95.323 250.807 95.2794 250.305C95.1705 249.368 87.6361 248.735 87.6361 248.735L81.0162 253.511L80.4718 253.903C80.4718 253.903 80.9291 255.386 81.1251 255.953C81.321 256.52 81.1251 257.175 81.1251 257.567C81.1251 257.785 80.9291 259.9 80.7766 261.819C80.5589 263.477 80.4282 264.938 80.4282 264.938Z" fill="#FAC5A8"/>
<path d="M70.9339 267.38C72.0663 268.405 75.9641 273.988 77.3142 274.773C78.6643 275.558 80.6024 276.583 81.8219 276.278C82.388 276.125 83.2808 275.514 84.1083 274.729C84.1083 274.729 84.1083 274.729 84.1301 274.708C86.0682 273.268 87.2005 270.848 87.832 267.925C88.4635 265.003 88.5724 257.174 88.5724 257.174L91.817 254.928C91.817 254.928 92.6227 254.1 93.4502 253.14C93.4502 253.14 90.2709 255.604 89.9007 255.822C89.5088 256.062 87.44 256.847 87.44 256.847C87.44 256.847 87.5054 260.206 87.5925 261.274C87.6796 262.343 87.7014 266.028 87.7667 266.966C87.832 267.904 86.4819 270.521 86.4819 270.521C86.4819 270.521 86.3077 270.782 86.0682 271.197C85.4367 272.2 84.2172 274.097 83.6293 274.795L83.5857 274.838C82.8018 275.776 80.8855 275.885 79.9056 275.58C78.9257 275.275 76.2472 272.461 75.4633 271.349C74.6794 270.237 73.3946 268.187 73.3946 268.187L71.8485 265.287C71.0428 266.268 70.6073 267.075 70.9339 267.38Z" fill="#F8D1BC"/>
<path d="M94.9963 250.523C94.9963 250.523 92.6663 252.769 91.73 253.031C90.7718 253.293 89.1822 252.224 89.1822 252.224L86.1771 252.268L81.6477 253.053L87.6143 248.757C87.6143 248.757 92.2526 249.324 93.8204 249.651C95.3665 249.978 94.9963 250.523 94.9963 250.523Z" fill="#F8D1BC"/>
<path d="M149.131 211.575L174.261 197.052L181.076 101.012L181.86 90.0652V90.0434L180.423 90.8939L179.291 106.748L172.954 196.136L149.262 209.831L149.131 211.575ZM180.423 90.8939L181.86 90.0652V90.0434L180.423 90.8939ZM67.5586 260.707L71.4347 263.389L178.246 199.887L178.267 199.756L178.572 196.136L188.916 76.7192L185.018 74.0369L76.3561 136.864L67.5586 260.707ZM143.273 214.977L150.939 101.754L182.339 83.3268L182.274 84.0682L181.86 90.0434H181.882L174.282 197.03L174.261 197.052L181.076 101.012L181.86 90.0652V90.0434L180.423 90.8939L179.291 106.748L172.954 196.136L149.262 209.831L149.131 211.575L146.235 213.255L143.273 214.977ZM113.07 230.744L120.67 123.757L147.324 108.34L139.724 215.348L113.07 230.744ZM81.1685 250.872L81.2992 249.127L81.8871 240.95L88.7901 143.864L112.504 130.169L113.941 129.34L113.179 140.2L106.341 236.327L81.1685 250.872ZM180.423 90.8939L181.86 90.0652V90.0434L180.423 90.8939ZM149.131 211.575L174.261 197.052L181.076 101.012L181.86 90.0652V90.0434L180.423 90.8939L179.291 106.748L172.954 196.136L149.262 209.831L149.131 211.575Z" fill="#7B7F8B"/>
<path d="M71.4346 263.367L180.118 200.541L188.916 76.6973L80.232 139.546L71.4346 263.367ZM181.882 90.0433L174.282 197.03L174.26 197.052L149.131 211.575L149.262 209.831L156.731 104.567L178.964 91.6789L180.423 90.8938L181.882 90.0433ZM113.157 140.2L106.32 236.326L81.1684 250.85L81.299 249.105L81.887 240.928L88.79 143.842L112.504 130.147L113.941 129.318L113.157 140.2ZM147.324 108.318L139.724 215.326L113.07 230.722L120.67 123.736L147.324 108.318Z" fill="#C5C7CF"/>
<path d="M116.968 121.402L117.316 121.642L151.287 101.994L150.938 101.754L116.968 121.402Z" fill="#DBDCE0"/>
<path d="M117.316 121.642L109.042 238.093L110.479 237.264L143.012 218.466L151.287 102.016L117.316 121.642ZM120.67 123.757L147.324 108.34L139.724 215.348L113.07 230.744L120.67 123.757Z" fill="#E8E9F0"/>
<path d="M75.071 257.719L76.3776 258.635L80.0795 246.685L81.8869 240.95L88.7681 143.864L112.482 130.169L113.919 129.34L113.157 140.2L118.623 122.558L117.316 121.642L83.3459 141.269L75.071 257.719Z" fill="#9497A1"/>
<path d="M79.8618 249.956L81.299 249.127L81.887 240.95L88.7682 143.864L112.482 130.169L112.613 128.402L87.4616 142.948L80.0796 246.685L79.8618 249.956Z" fill="#FFFEFF"/>
<path d="M143.034 218.445L144.34 219.339L146.235 213.255L148.042 207.41L149.828 201.653L156.731 104.589L178.964 91.679L180.423 90.8939L179.291 106.748L181.054 101.012L181.098 100.925L186.586 83.2614L185.257 82.3455L182.274 84.0682L151.287 101.994L143.273 214.977L143.034 218.445Z" fill="#9497A1"/>
<path d="M151.287 101.994L152.615 102.91L186.586 83.2614L185.257 82.3455L151.287 101.994Z" fill="#DBDCE0"/>
<path d="M147.824 210.659L149.24 209.831L149.828 201.653L156.731 104.589L178.964 91.6787L180.423 90.8937L180.532 89.1055L155.424 103.651L148.042 207.41L147.824 210.659Z" fill="#FFFEFF"/>
<path d="M112.591 128.424L104.991 235.411L79.8618 249.956L79.9925 248.212L103.663 234.517L111.154 129.253L112.591 128.424Z" fill="#9497A1"/>
<path d="M147.323 108.34L139.724 215.326L113.07 230.744L113.201 228.999L138.417 214.432L145.886 109.169L147.323 108.34Z" fill="#9497A1"/>
<path d="M113.201 228.999L113.07 230.744L139.724 215.326L138.417 214.432L113.201 228.999Z" fill="#DBDCE0"/>
<path d="M180.553 89.1274L172.932 196.136L147.802 210.659L147.933 208.915L171.625 195.22L179.094 89.9561L180.553 89.1274Z" fill="#9497A1"/>
<path d="M84.6525 142.185L76.3777 258.636L110.348 239.009L118.623 122.558L117.186 123.387L84.6525 142.185ZM88.7899 143.864L113.941 129.34L106.341 236.348L81.1902 250.872L88.7899 143.864Z" fill="#F4F5FA"/>
<path d="M152.615 102.91L144.34 219.361L178.245 199.778L178.311 199.734L186.586 83.2832L152.615 102.91ZM156.731 104.567L178.964 91.7008L180.423 90.8939L181.882 90.0435L174.282 197.052L149.131 211.575L156.731 104.567Z" fill="#F4F5FA"/>
<path d="M113.919 129.318L106.32 236.327L81.1902 250.85L81.2991 249.106L104.991 235.411L112.482 130.147L113.919 129.318Z" fill="#9497A1"/>
<path d="M81.2991 249.127L81.1902 250.872L106.32 236.327L104.991 235.411L81.2991 249.127Z" fill="#DBDCE0"/>
<path d="M181.86 90.0435L174.26 197.03L149.131 211.575L149.262 209.831L172.932 196.136L180.423 90.8721L181.86 90.0435Z" fill="#9497A1"/>
<path d="M149.262 209.831L149.131 211.575L174.26 197.03L172.954 196.136L149.262 209.831Z" fill="#DBDCE0"/>
<path d="M154.923 214.628L153.944 214.367L152.397 213.254L153.66 210.659L157.863 209.22L160.651 207.476L161.696 204.314L159.475 203.856L158.908 202.569L160.259 201.871L168.686 203.856L164.178 210.223L160.411 213.342L154.923 214.628Z" fill="#7B7F8B"/>
<path d="M180.423 90.8721L172.932 196.136L149.262 209.809L149.392 208.064L171.626 195.22L178.986 91.7007L180.423 90.8721Z" fill="#9497A1"/>
<path d="M145.886 109.168L138.417 214.432L113.201 228.999L113.331 227.255L137.089 213.516L144.449 109.997L145.886 109.168Z" fill="#9497A1"/>
<path d="M112.482 130.147L104.991 235.411L81.2991 249.106L81.4297 247.361L103.685 234.495L111.023 130.997L112.482 130.147Z" fill="#9497A1"/>
<path d="M83.3459 141.29L84.6525 142.185L118.645 122.536L117.316 121.642L83.3459 141.29Z" fill="#DBDCE0"/>
<path d="M149.523 160.088L149.109 160.721L148.478 169.749L148.935 170.032L150.547 169.051L150.83 168.201L149.523 160.088Z" fill="#C5C7CF"/>
<path d="M149.523 160.088L149.937 160.372L151.744 159.325L151.33 159.042L149.523 160.088Z" fill="#C5C7CF"/>
<path d="M149.305 169.313L149.937 160.372L151.744 159.325L151.113 168.244L149.305 169.313Z" fill="#E0F7FF"/>
<path d="M149.523 160.088L149.937 160.372L149.305 169.313L148.87 169.008L149.523 160.088Z" fill="#9497A1"/>
<path d="M150.002 164.122L149.915 165.278L151.222 166.194L151.309 165.016L150.002 164.122Z" fill="#9497A1"/>
<path d="M151.309 165.017L151.222 166.194L152.267 165.584L152.332 164.428L151.309 165.017Z" fill="#A21B00"/>
<path d="M151.309 165.016L150.003 164.122L151.026 163.512L152.333 164.428L151.309 165.016Z" fill="#C5C7CF"/>
<path d="M158.908 161.767L158.821 163.163L152.158 167.045L152.267 165.649L158.908 161.767Z" fill="#E0F7FF"/>
<path d="M152.267 165.649L152.158 167.044L151.026 166.259L151.135 164.864L152.267 165.649Z" fill="#9497A1"/>
<path d="M152.267 165.649L158.909 161.767L157.776 161.004L151.135 164.864L152.267 165.649Z" fill="#C5C7CF"/>
<path d="M111.567 182.048L111.154 182.702L110.522 191.709L111.001 191.992L112.613 191.011L112.896 190.182L111.567 182.048Z" fill="#C5C7CF"/>
<path d="M111.567 182.048L111.981 182.332L113.81 181.285L113.375 181.001L111.567 182.048Z" fill="#C5C7CF"/>
<path d="M111.35 191.273L111.981 182.332L113.81 181.285L113.179 190.226L111.35 191.273Z" fill="#E0F7FF"/>
<path d="M111.568 182.048L111.981 182.332L111.35 191.273L110.936 190.989L111.568 182.048Z" fill="#9497A1"/>
<path d="M112.047 186.083L111.959 187.26L113.266 188.154L113.353 186.999L112.047 186.083Z" fill="#9497A1"/>
<path d="M113.353 186.999L113.266 188.154L114.311 187.544L114.398 186.388L113.353 186.999Z" fill="#A21B00"/>
<path d="M113.354 186.999L112.047 186.083L113.093 185.494L114.399 186.388L113.354 186.999Z" fill="#C5C7CF"/>
<path d="M115.465 186.933L115.357 188.351L108.715 192.211L108.802 190.815L115.465 186.933Z" fill="#E0F7FF"/>
<path d="M108.802 190.815L108.715 192.211L107.583 191.426L107.67 190.052L108.802 190.815Z" fill="#9497A1"/>
<path d="M108.803 190.815L115.466 186.955L114.334 186.17L107.67 190.052L108.803 190.815Z" fill="#C5C7CF"/>
<path d="M209.276 302.817C209.276 302.817 210.343 304.016 210.496 304.627C210.648 305.238 210.975 306.764 210.583 307.44C210.191 308.116 207.447 309.315 206.315 309.381C205.182 309.468 203.418 310.013 202.7 310.362C201.981 310.711 199.586 313.132 197.517 314.375C195.448 315.618 191.747 316.555 190.266 316.337C188.763 316.119 187.566 314.506 187.5 314.135C187.435 313.764 187.282 311.801 187.827 311.256C188.393 310.711 198.562 307.527 198.562 307.527L209.276 302.817Z" fill="#3E362F"/>
<path d="M209.124 299.241C209.124 299.241 210.104 303.275 210.016 304.649C209.908 306.023 205.792 307.353 203.418 308.923C201.045 310.493 197.06 313.721 193.358 314.724C189.656 315.727 187.587 314.462 187.609 312.303C187.631 310.144 190.571 307.702 191.986 306.241C193.38 304.78 201.067 300.854 201.067 300.854L203.331 298.325L209.124 299.241Z" fill="#524B45"/>
<path d="M218.313 243.632C218.335 244.744 218.248 245.922 218.117 247.078C218.052 247.645 217.965 248.233 217.878 248.8C217.486 251.461 216.941 253.969 216.941 255.713C216.92 260.293 213.697 270.193 213.697 270.193C213.697 270.193 213.588 275.274 213.327 280.05C213.087 284.804 210.213 299.72 209.646 300.832C209.407 301.29 208.841 301.792 208.013 302.185C206.903 302.73 205.313 303.122 203.484 303.057C200.305 302.97 199.216 300.418 199.216 300.418C199.216 300.418 200.435 272.483 200.326 269.91C200.261 268.296 199.869 260.489 200.087 252.246C200.196 248.059 200.457 243.785 200.98 240.143C201.067 239.51 201.176 238.9 201.285 238.311C201.328 238.049 201.393 237.788 201.437 237.548C202.243 233.971 203.789 232.467 205.661 232.205C208.819 231.725 212.913 234.778 215.853 237.221C217.682 238.704 218.27 241.037 218.313 243.632Z" fill="#355FA1"/>
<path d="M208.013 302.185C208.841 301.77 209.407 301.29 209.646 300.833C210.213 299.72 213.109 284.826 213.348 280.05C213.588 275.274 213.718 270.193 213.718 270.193C213.718 270.193 216.941 260.293 216.963 255.713C216.963 252.857 218.422 247.906 218.335 243.632C215.439 244.613 213.065 245.9 213.065 245.9C213.065 245.9 212.913 254.121 212.956 256.149C213 258.178 213.043 263.956 212.129 268.623C211.192 273.29 211.258 277.651 211.105 279.44C210.975 280.813 209.015 294.661 208.013 302.185Z" fill="#6C8FC2"/>
<path d="M235.843 307.07C235.843 307.07 237.04 307.266 236.975 308.64C236.91 309.992 237.062 311.366 237.062 311.366C237.062 311.366 236.104 312.609 235.429 313.067C234.754 313.525 234.253 314.004 234.253 314.004C234.253 314.004 233.317 318.889 230.965 320.634C228.613 322.378 225.586 323.207 222.734 322.967C219.881 322.727 218.879 320.939 218.879 320.939C218.879 320.939 218.509 319.543 218.727 318.693C218.945 317.842 225.129 314.68 225.129 314.68L235.843 307.07Z" fill="#3E362F"/>
<path d="M226.131 305.172C226.131 305.172 223.91 310.057 222.015 312.347C220.099 314.636 218.596 318.126 218.705 319.172C218.814 320.219 220.426 322.16 224.149 321.92C227.873 321.68 230.116 320.001 231.531 318.235C232.947 316.468 234.384 311.823 234.994 311.213C235.603 310.602 236.866 308.988 236.714 308.029C236.561 307.069 235.233 302.555 235.233 302.555L226.131 305.172Z" fill="#524B45"/>
<path d="M213.087 246.358C213.392 249.76 217.965 268.449 219.315 274.402C220.665 280.356 224.541 304.627 225.369 305.979C226.109 307.2 227.132 307.833 230.943 307.288C233.251 306.96 234.602 305.979 235.277 304.998C235.712 304.365 235.843 303.711 235.756 303.275C235.516 302.163 237.389 287.421 237.062 281.053C236.757 274.686 234.166 269.626 234.035 268.318C233.883 267.01 236.322 252.028 237.389 248.604C238.478 245.18 238.086 238.049 238.086 238.049L232.881 226.884L232.337 225.707C232.337 225.707 215.177 232.663 215.243 233.317C215.33 233.972 212.782 242.956 213.087 246.358Z" fill="#355FA1"/>
<path d="M235.756 303.275C235.516 302.163 237.389 287.421 237.062 281.054C236.757 274.686 234.166 269.626 234.035 268.318C233.883 267.01 236.322 252.028 237.389 248.604C238.478 245.181 238.086 238.05 238.086 238.05L232.881 226.884C233.186 230.701 233.796 233.405 234.514 237.308C235.734 243.785 232.184 264.589 232.533 267.729C232.881 270.87 236.191 281.25 235.364 287.051C234.819 290.91 234.079 302.904 235.255 305.02C235.712 304.344 235.864 303.711 235.756 303.275Z" fill="#6C8FC2"/>
<path d="M237.607 236.959C237.454 237.897 237.345 246.031 226.588 247.296C223.626 247.645 220.752 247.514 218.117 247.078C212.913 246.271 208.623 244.373 206.271 243C205.792 242.738 205.4 242.476 205.095 242.28C204.899 242.127 204.747 242.018 204.616 241.909C203.614 241.037 202.33 239.074 201.437 237.548C200.762 236.436 200.304 235.542 200.304 235.542C200.304 235.542 201.742 226.23 202.112 214.955C202.264 209.765 202.852 203.572 203.44 198.404C203.593 196.899 203.767 195.482 203.919 194.195C203.919 194.195 203.919 194.173 203.919 194.151C204.05 193.126 204.181 192.189 204.289 191.382C204.333 191.186 204.333 190.989 204.355 190.793C204.529 189.485 204.66 188.503 204.725 188.002C204.725 187.871 204.769 187.718 204.79 187.587C204.79 187.587 207.447 174.983 208.318 173.129C208.971 171.733 212.063 169.226 215.286 167.568C216.31 167.045 217.355 166.587 218.357 166.303C222.451 165.104 227.655 164.014 231.183 170.142C234.732 176.269 237.236 181.329 237.28 190.291C237.302 195.351 236.888 202.22 236.561 207.759V207.781C236.496 208.828 236.452 209.809 236.387 210.747C236.322 212.273 236.278 213.451 236.256 214.04C236.213 215.304 236.213 216.264 236.278 216.809C236.583 219.644 237.759 235.999 237.607 236.959Z" fill="#F7551A"/>
<path d="M237.607 230.024C237.52 228.847 236.605 208.588 236.561 207.781L236.518 207.824C236.823 200.584 237.236 189.921 237.171 189.179C237.084 188.067 236.039 180.783 234.079 179.562C232.119 178.341 228.374 177.185 226.022 177.185C223.67 177.185 218.161 178.014 215.983 178.864C214.829 179.322 212.76 182.811 211.062 185.974C209.69 188.547 208.558 190.924 208.427 191.229C208.536 190.771 209.733 186.257 210.975 182.135C211.867 179.235 212.76 176.531 213.326 175.55C214.742 173.107 220.338 166.194 220.338 166.194L215.286 167.568C215.286 167.568 210.953 171.319 209.581 173.369C208.231 175.419 207.033 191.273 207.033 191.273L203.44 198.404L201.916 201.413L200.304 233.95C200.304 233.95 199.956 237.395 200.98 240.143C201.197 240.775 201.502 241.364 201.894 241.866C202.221 242.28 202.722 242.76 203.353 243.218C203.353 243.239 203.353 243.239 203.353 243.239C206.336 245.398 212.281 247.928 217.878 248.8C218.923 248.975 219.99 249.084 220.992 249.127C228.504 249.389 234.841 247.099 238.173 243C238.587 242.498 237.715 231.245 237.607 230.024ZM210.931 188.896C212.543 184.992 215.33 181.438 218.749 180.609C224.737 179.148 230.508 182.223 230.508 182.223C230.508 182.223 233.404 183.182 234.34 184.556C234.993 185.494 235.233 200.279 235.298 209.482L234.754 210.223C234.754 210.223 233.818 222.719 231.814 225.685C229.811 228.672 224.693 227.756 219.99 226.884C215.286 225.99 214.873 218.488 214.873 218.488L212.325 214.977C212.325 214.977 212.238 214.345 212.063 213.32C211.563 209.765 210.3 201.326 209.581 197.226C209.189 194.958 209.733 191.84 210.931 188.896Z" fill="#355FA1"/>
<path d="M224.802 201.239C224.802 201.239 213.784 211.902 212.608 212.775C212.455 212.884 212.281 213.08 212.063 213.32C210.67 214.977 208.231 219.099 208.231 219.099C208.231 219.099 205.531 230.417 205.574 230.94C205.618 231.354 205.64 231.791 205.661 232.205C205.814 235.28 205.552 238.398 205.487 241.473C205.487 241.778 205.444 242.127 205.16 242.258C205.139 242.28 205.117 242.28 205.095 242.28C204.877 242.367 204.594 242.214 204.333 242.214C203.789 242.193 203.527 242.694 203.353 243.218C203.353 243.239 203.353 243.239 203.353 243.239C203.31 243.414 203.266 243.61 203.244 243.785C202.787 246.794 201.698 249.673 200.087 252.246C200.196 248.059 200.457 243.785 200.979 240.143C199.956 237.395 200.304 233.95 200.304 233.95L201.916 201.413L203.44 198.404C203.593 196.899 203.767 195.482 203.919 194.195C203.919 194.195 203.919 194.173 203.919 194.151C204.115 193.257 204.224 192.319 204.289 191.382C204.333 191.186 204.333 190.989 204.355 190.793C204.442 189.855 204.551 188.918 204.725 188.002C204.725 187.871 204.768 187.718 204.79 187.587C204.79 187.587 207.447 174.983 208.318 173.129C208.971 171.733 212.063 169.226 215.286 167.568L216.919 167.394C216.919 167.394 211.519 175.855 211.149 177.796C210.975 178.668 210.953 180.435 210.975 182.135C210.996 183.749 211.04 185.298 211.062 185.974C211.083 186.17 211.084 186.301 211.084 186.301L210.278 189.179C210.278 189.179 210.517 189.07 210.931 188.896C213.326 187.893 221.427 184.447 221.667 184.011C221.928 183.466 226.827 196.114 224.802 201.239Z" fill="#D1B09D"/>
<path d="M212.477 164.385C213.544 166.674 214.786 168.593 214.764 169.618C214.72 170.643 214.219 173.849 214.219 173.849C214.219 173.849 213.653 176.771 216.353 176.531C219.054 176.291 224.149 174.852 226.61 173.064C229.07 171.276 229.615 169.466 229.702 168.79C229.724 168.528 229.571 168.288 229.332 167.939C229.005 167.438 228.548 166.652 228.417 165.126C228.199 162.553 231.836 154.658 231.836 154.658C231.836 154.658 228.657 143.58 222.451 147.702C217.181 151.191 212.891 159.151 212.368 162.858C212.281 163.512 212.303 164.036 212.477 164.385Z" fill="#FAC5A8"/>
<path d="M212.477 164.384C213.544 166.674 214.785 168.593 214.764 169.618C214.72 170.643 214.219 173.849 214.219 173.849C214.219 173.849 213.653 176.771 216.353 176.531C219.053 176.291 224.149 174.852 226.61 173.064C229.07 171.275 229.615 169.465 229.702 168.789C229.724 168.528 229.571 168.288 229.332 167.939C229.353 168.201 229.353 168.484 229.353 168.746C229.288 169.749 227.633 170.796 226.196 172.104C224.759 173.412 221.079 174.917 220.251 175.135C219.424 175.353 216.941 175.833 216.811 175.724C216.68 175.615 216.636 171.515 216.636 170.381C216.636 169.247 215.482 167.045 215.482 167.045C215.482 167.045 215.918 166.325 216.745 166.238C217.594 166.151 222.494 162.945 222.494 162.945C220.992 161.637 216.244 161.964 212.39 162.858C212.281 163.512 212.303 164.035 212.477 164.384Z" fill="#F8D1BC"/>
<path d="M208.601 163.534C208.601 163.534 208.71 164.537 209.951 164.842C211.366 165.191 213.348 165.366 215.134 165.061C216.919 164.777 222.581 163.338 223.801 162.117C225.02 160.895 229.767 153.415 229.353 151.518C228.961 149.621 231.379 141.879 228.134 140.2C224.868 138.521 218.879 137.278 215.743 140.593C212.629 143.907 211.388 148.225 211.388 148.225C211.388 148.225 211.541 149.992 211.41 150.537C211.279 151.082 208.579 153.633 208.536 153.808C208.492 153.982 208.753 154.637 208.84 154.942C208.928 155.247 209.624 155.705 209.624 155.705L209.036 158.235L209.298 158.911L208.601 159.849L208.819 160.721L208.601 163.534Z" fill="#FAC5A8"/>
<path d="M209.581 154.026C209.581 154.026 212.39 155.967 212.739 155.552C213.087 155.16 212.564 153.524 212.499 153.393C212.434 153.263 213.348 150.689 213.239 150.558C213.174 150.428 209.625 153.502 209.581 154.026Z" fill="#FFD4BD"/>
<path d="M215.983 142.424C215.983 142.424 221.384 143.231 221.841 144.016C222.298 144.801 221.688 148.727 222.015 150.253C222.342 151.78 222.69 154.135 222.625 155.204C222.559 156.25 220.295 158.431 218.531 158.693C216.789 158.954 214.589 157.799 214.067 156.49C213.544 155.182 215.896 154.964 217.224 154.876C218.553 154.789 219.119 154.789 219.707 154.484C220.317 154.157 220.839 152.238 220.317 151.06C219.794 149.883 216.68 148.225 216.223 148.182C215.765 148.138 214.067 147.68 213.414 147.44C212.782 147.157 214.938 142.163 215.983 142.424Z" fill="#FFD4BD"/>
<path d="M223.365 146.241C223.365 146.241 222.429 149.992 222.516 150.777C222.603 151.562 222.995 155.203 222.995 155.203L224.236 156.032C224.236 156.032 227.067 152.979 228.417 154.135C229.767 155.291 228.482 160.852 228.526 161.31C228.57 161.767 228.766 162.727 228.766 162.727C228.766 162.727 236.017 154.44 237.084 148.334C238.151 142.206 231.618 138.477 229.136 136.798C226.653 135.119 222.298 136.275 219.01 137.561C215.722 138.848 214.677 141.051 214.916 141.596C215.156 142.141 223.365 143.057 223.518 143.21C223.648 143.384 223.365 146.241 223.365 146.241Z" fill="#4A2727"/>
<path d="M153.29 213.32C153.312 213.451 153.421 213.538 153.639 213.516C154.466 213.429 157.21 212.579 157.21 212.579L160.084 211.423L157.537 213.255L155.141 214.541L154.749 214.759L157.297 214.912L160.498 214.389C160.498 214.389 163.634 212.949 164.527 212.6C165.419 212.251 171.168 208.828 171.168 208.828C171.168 208.828 177.788 211.117 180.379 211.924C182.971 212.753 195.884 215.108 198.693 214.956C201.502 214.825 203.506 213.32 204.181 212.993C204.856 212.666 216.985 205.339 216.985 205.339C216.985 205.339 217.072 204.837 217.181 204.052C217.377 202.329 217.529 199.276 216.484 197.226C215.373 195.024 209.472 196.659 206.445 197.924C205.4 198.36 204.703 198.753 204.638 198.927C204.42 199.625 198.475 204.074 198.083 204.292C197.691 204.51 194.795 204.684 190.266 204.641C185.736 204.575 172.301 203.768 171.691 203.529C171.081 203.31 166.073 201.697 166.073 201.697L161.718 200.476C161.718 200.476 159.932 200.301 159.083 200.345C158.887 200.345 158.756 200.388 158.647 200.454C158.277 200.672 158.364 201.13 158.691 201.697C159.104 202.416 161.064 202.918 161.064 202.918L162.044 203.485L162.915 203.986C162.915 203.986 162.785 205.993 162.828 206.32C162.872 206.647 159.257 209.504 159.017 209.7C159.017 209.7 159.017 209.7 158.996 209.722C158.734 209.874 156.535 211.03 155.098 211.619C153.944 212.077 153.247 212.949 153.29 213.32Z" fill="#FAC5A8"/>
<path d="M206.445 197.924C205.4 198.36 204.703 198.753 204.638 198.927C204.42 199.625 198.475 204.074 198.083 204.292C197.691 204.51 194.795 204.684 190.266 204.641C185.736 204.575 172.301 203.768 171.691 203.529L171.321 204.75C171.321 204.75 178.354 204.532 180.031 204.728C181.708 204.924 197.822 204.859 197.822 204.859L198.954 204.357C198.954 204.357 203.81 200.148 206.206 199.08C206.489 198.971 206.576 198.535 206.445 197.924Z" fill="#F8D1BC"/>
<path d="M163.873 206.036C163.873 206.036 164.94 204.488 164.723 203.943C164.505 203.398 162.436 202.678 162.436 202.678L159.867 202.155C159.867 202.155 158.516 201.609 158.647 200.454C158.277 200.672 158.364 201.13 158.691 201.697C159.104 202.416 161.064 202.918 161.064 202.918L162.044 203.485L162.915 203.986C162.915 203.986 162.785 205.993 162.828 206.32C162.872 206.647 159.257 209.504 159.017 209.7L160.672 208.871L163.873 206.036Z" fill="#F8D1BC"/>
<path d="M157.253 214.694L155.141 214.519L154.749 214.737L157.297 214.89L160.498 214.367C160.498 214.367 163.634 212.927 164.527 212.578C165.419 212.23 171.168 208.806 171.168 208.806C171.168 208.806 177.788 211.096 180.379 211.902C182.971 212.731 195.884 215.086 198.693 214.934C201.502 214.803 203.506 213.298 204.181 212.971C204.856 212.644 216.985 205.317 216.985 205.317C216.985 205.317 217.072 204.815 217.181 204.03C216.68 204.357 216.179 204.706 215.635 205.077C215.635 205.077 205.095 212.513 201.611 213.516C198.105 214.541 198.062 214.149 192.705 213.211C187.348 212.273 180.815 211.03 177.266 209.831C173.716 208.631 170.646 207.759 170.646 207.759C170.646 207.759 167.728 210.267 167.096 210.681C166.486 211.096 164.418 212.339 164.418 212.339L160.367 214.127L157.253 214.694Z" fill="#F8D1BC"/>
<path d="M153.29 213.32C153.312 213.451 153.421 213.538 153.639 213.516C154.466 213.429 157.21 212.578 157.21 212.578L160.084 211.423L157.537 213.254L155.141 214.541L157.667 214.367L160.52 213.603L163.786 211.924L160.215 213.429L157.754 214.04L157.362 213.691L160.585 211.793L163.133 210.201L162.001 210.332L158.56 211.728L156.034 212.666L154.074 213.211C154.074 213.211 153.595 213.32 153.29 213.32Z" fill="#F8D1BC"/>
<path d="M203.745 198.382C203.745 198.382 204.181 200.672 206.489 202.024C208.797 203.376 215.177 207.934 216.179 207.759C217.181 207.585 226.044 200.519 228.591 197.706C231.139 194.893 231.401 187.435 226.261 185.014C221.122 182.594 217.486 182.288 214.11 186.344C210.735 190.401 203.745 198.382 203.745 198.382Z" fill="#FF862A"/>
<path d="M224.171 158.976C224.171 158.976 224.062 160.459 225.674 160.285C227.285 160.132 229.854 157.21 230.377 155.771C230.9 154.331 229.963 152.718 228.439 153.088C226.915 153.459 225.521 155.574 225.456 156.163C225.39 156.774 224.171 158.976 224.171 158.976Z" fill="#FFD4BD"/>
<path d="M37.8998 374.061C37.8998 374.061 36.615 374.585 36.3537 376.089C36.0924 377.594 36.5715 378.466 36.6368 378.597C36.7021 378.728 39.0757 380.865 41.4711 380.364C43.8664 379.84 44.977 378.881 45.8698 377.725C46.7626 376.569 47.7425 374.345 48.7007 374.17C49.6588 373.974 53.8833 371.662 54.5148 370.834C55.1463 370.005 53.1647 368.108 53.1647 368.108L45.3254 369.94L37.8998 374.061Z" fill="#3E362F"/>
<path d="M39.6201 367.366C39.6201 367.366 37.3554 372.905 37.0941 374.039C36.8328 375.173 37.5079 376.743 38.27 377.092C39.0322 377.441 42.4074 378.51 44.389 377.027C46.3706 375.522 47.3288 373.712 48.9184 372.382C50.5081 371.074 53.1429 370.441 53.6873 369.329C54.2317 368.217 53.1212 364.139 53.1212 364.139L45.5649 364.662L39.6201 367.366Z" fill="#524B45"/>
<path d="M38.7927 368.479C38.7927 368.479 40.3388 370.267 44.0624 369.591C44.8028 369.46 45.5432 369.198 46.2183 368.871C48.8967 367.563 50.8347 364.968 51.0307 363.681C51.2703 362.045 53.4043 335.092 53.2519 333.74C53.0994 332.409 53.4261 311.976 53.4261 311.976C53.4261 311.976 51.5316 308.356 50.1161 305.761C49.6588 304.932 49.2669 304.213 48.9838 303.733C47.8515 301.836 36.8328 299.895 36.8328 299.895L35.1125 302.795C35.1125 302.795 35.1561 309.49 37.5297 315.727C39.9032 321.986 40.6219 331.036 40.2952 336.487C39.9468 341.939 39.2282 347.587 38.9669 356.092C38.7273 364.597 38.7927 368.479 38.7927 368.479Z" fill="#2A5294"/>
<path d="M46.2181 368.871C48.8966 367.563 50.8346 364.968 51.0306 363.681C51.2702 362.046 53.4042 335.092 53.2518 333.74C53.0993 332.409 53.426 311.976 53.426 311.976C53.426 311.976 51.5315 308.356 50.116 305.761C48.6788 307.593 47.0456 310.013 45.1511 313.11C45.1511 313.11 46.5448 315.422 46.7408 321.157C46.9368 326.892 47.0239 333.827 47.0456 335.593C47.0674 337.36 45.1729 343.248 45.5431 348.285C45.8044 351.425 45.8915 361.479 46.2181 368.871Z" fill="#6C8FC2"/>
<path d="M69.453 387.211L71.0426 387.844L71.2386 389.697C71.2386 389.697 71.1297 390.766 70.1934 391.987C69.257 393.208 66.9488 395.04 64.4445 395.738C61.9185 396.436 59.1095 396.501 59.1095 396.501L57.302 397.461L56.9754 398.486C56.9754 398.486 52.2065 400.819 50.2902 400.993C48.3739 401.168 46.4794 399.031 45.935 398.333C45.3906 397.635 45.26 395.52 45.6737 395.193C46.0875 394.866 51.0959 394.277 51.0959 394.277L60.9822 392.816L69.453 387.211Z" fill="#3E362F"/>
<path d="M58.391 385.445L65.2286 384.703C65.2286 384.703 69.3225 385.096 70.3024 386.339C71.2823 387.582 71.0428 388.083 70.9774 388.759C70.7814 390.94 67.1231 393.47 66.2303 393.906C65.3375 394.342 57.411 396.196 57.411 396.196C57.411 396.196 52.1631 399.096 50.3774 398.878C48.57 398.66 46.4578 397.766 45.8045 396.392C45.1512 395.018 46.4142 393.382 46.4142 393.382L50.9436 390.7L58.391 385.445Z" fill="#524B45"/>
<path d="M70.6942 311.322C70.6942 313.284 70.5853 315.465 70.3458 317.646C69.649 324.014 64.6623 347.98 63.9437 354.26C63.2469 360.562 61.2653 384.376 60.6991 386.099C60.4813 386.753 59.8934 387.538 59.0877 388.323C57.8029 389.588 55.9519 390.831 54.0574 391.507C51.0088 392.597 47.4158 392.118 47.3505 391.485C47.2851 390.853 45.1511 369.002 47.0456 357.248C48.9183 345.494 47.7642 318.605 47.7642 318.605L47.4376 315.465C47.4376 315.465 46.1528 314.724 44.9116 312.739C44.6938 312.39 44.4761 311.998 44.2583 311.562C43.6486 310.319 43.0824 308.705 42.7993 306.699C41.8412 300.091 58.1949 292.088 58.1949 292.088L68.9304 303.057L70.0627 304.212L70.52 304.692C70.52 304.692 70.5636 305.172 70.6071 306.001C70.6289 306.546 70.6507 307.222 70.6724 308.007C70.716 308.966 70.716 310.1 70.6942 311.322Z" fill="#355FA1"/>
<path d="M70.9339 267.38C72.0663 268.405 75.9641 273.988 77.3143 274.773C78.6644 275.558 80.6024 276.583 81.8219 276.277C82.3881 276.125 83.2809 275.514 84.1083 274.729C84.1083 274.729 84.1083 274.729 84.1301 274.707C85.11 273.77 85.9811 272.592 86.0682 271.72C86.09 271.567 86.0682 271.414 86.0464 271.218C85.8069 269.343 83.7164 265.592 82.7365 264.043C82.3445 263.411 81.5606 262.626 80.7113 261.885C79.2741 260.598 77.6627 259.442 77.6627 259.442C77.6627 259.442 73.7212 262.931 71.8267 265.308C71.0428 266.268 70.6073 267.075 70.9339 267.38Z" fill="#FAC5A8"/>
<path d="M85.2843 252.813C85.2843 252.813 84.435 254.536 86.2424 255.277C88.0716 256.04 89.4653 254.928 89.4653 254.928C89.4653 254.928 91.6864 252.268 91.8171 251.526C91.9477 250.785 93.1454 247.797 93.1454 247.797C93.1454 247.797 94.3213 246.685 94.0164 245.965C93.7116 245.246 92.9494 244.875 92.1001 245.486C91.2509 246.096 90.4452 247.535 90.4234 247.754C90.3798 247.972 89.5306 249.651 89.5306 249.651C89.5306 249.651 87.1135 250.588 85.2843 252.813Z" fill="#FAC5A8"/>
<path d="M64.2923 218.75C64.2923 218.75 68.6693 213.254 69.5185 212.971C70.346 212.687 72.1316 210.965 72.676 210.223C73.2204 209.46 73.3511 208.37 73.3511 208.37L75.3109 206.058C75.3109 206.058 77.9893 205.011 77.8151 204.139C77.6627 203.267 77.2272 202.896 76.2255 203.136C75.202 203.376 71.6961 205.535 71.6961 205.535L70.9122 205.055L71.5437 201.021C71.5437 201.021 73.9173 194.958 74.0261 194.348C74.1132 193.737 73.3293 193.475 73.0898 193.562C72.8502 193.65 72.0663 194.718 72.0663 194.718L70.8686 197.139L69.9758 197.531L69.0612 199.036C69.0612 199.036 66.4481 204.357 66.2739 205.666C66.0997 206.952 59.8718 218.423 59.8718 218.423L64.2923 218.75Z" fill="#FAC5A8"/>
<path d="M72.6324 256.149C71.2823 263.564 69.3007 273.05 69.4531 274.358C69.4749 274.467 69.4749 274.62 69.4967 274.838C69.7798 278.633 70.825 297.867 70.9556 299.153C71.1081 300.483 71.3694 304.431 71.3694 304.431C71.3694 304.431 71.1516 305.063 70.6072 306.001C70.3895 306.371 70.1064 306.808 69.758 307.244C69.2354 307.92 68.5385 308.661 67.6893 309.403C65.5988 311.191 62.4195 312.914 57.6506 313.546C52.9687 314.157 48.2434 313.154 44.2584 311.562C38.6838 309.359 34.6117 306.066 34.3068 304.67C33.8713 302.708 34.7641 286.985 34.9165 278.393C34.9383 278.196 34.9383 278.044 34.9383 277.935C34.9819 276.212 34.9818 274.795 34.9165 273.9C34.6117 268.601 31.7808 247.339 31.7808 247.339C31.7808 247.339 29.7121 235.28 34.6552 231.791C39.5983 228.28 52.1413 233.426 52.1413 233.426C52.1413 233.426 61.4178 238.595 63.3994 239.816C63.7043 240.012 64.1833 240.274 64.7277 240.601L65.0544 240.797L66.5787 241.735L68.0377 242.629C70.7161 244.308 73.5034 246.249 73.8518 247.252C74.0696 247.928 73.4817 251.657 72.6324 256.149Z" fill="#F7551A"/>
<path d="M70.6943 307.985L70.6725 308.007C70.3677 308.378 69.9539 308.792 69.4531 309.25C66.644 311.802 61.0258 315.225 53.2518 314.44C50.0507 314.113 47.2852 313.503 44.9116 312.739C40.5129 311.322 37.5078 309.359 35.548 307.702C32.5429 305.15 33.7406 297.082 33.8277 294.53C33.893 292.306 34.6987 281.162 34.9165 278.393C34.9383 278.197 34.9383 278.044 34.9383 277.935C34.96 277.848 34.96 277.782 34.96 277.782L35.9182 274.097C35.9182 274.097 35.548 264.654 34.285 254.318C33.022 243.981 34.4592 235.76 37.007 233.034C39.5548 230.308 40.992 230.635 45.3689 231.333C42.1243 231.987 39.3588 234.669 38.466 241.866C37.5514 249.062 39.1846 272.919 39.1846 272.919L48.5264 277.193C48.5264 277.193 47.1763 252.464 51.7057 245.987C56.2351 239.51 64.7277 240.601 64.7277 240.601L65.0543 240.797L66.5787 241.735L68.0376 242.629C68.0376 242.629 64.3575 242.891 57.9554 247.252C51.575 251.613 53.7091 277.782 53.7091 277.782C53.7091 277.782 53.7091 278.175 56.9319 278.24C59.1531 278.262 64.2922 276.626 67.2755 275.623C68.6038 275.165 69.4966 274.838 69.4966 274.838L70.7161 286.461C70.7161 286.461 71.1298 287.988 71.4347 294.268C71.7395 300.549 72.763 305.543 70.6943 307.985Z" fill="#355FA1"/>
<path d="M69.4531 274.358C69.4749 274.467 69.4749 274.62 69.4967 274.838C69.4967 274.838 68.6039 275.165 67.2755 275.623C67.2973 274.01 67.3626 272.396 67.1884 270.782C67.1666 270.542 64.1833 257.436 64.1833 257.436L68.9523 249.956C68.9523 249.956 70.4766 252.529 72.6324 256.149C71.2823 263.564 69.3007 273.05 69.4531 274.358Z" fill="#B87A56"/>
<path d="M70.6944 307.985C72.7631 305.543 71.7397 300.549 71.4348 294.269C71.1299 287.988 70.7162 286.462 70.7162 286.462L69.4968 274.838C69.4968 274.838 68.604 275.165 67.2756 275.623C67.2321 277.106 67.2321 278.567 67.4498 280.007C67.6676 281.359 67.7765 282.798 68.1466 284.106C68.408 285.044 68.7782 285.742 68.8217 286.745C68.9306 289.798 68.7999 292.829 69.1048 295.882C69.3879 298.586 70.0412 301.443 70.0629 304.213C70.0629 304.954 70.0194 305.696 69.9105 306.415C69.8669 306.677 69.8016 306.96 69.7581 307.244C69.6056 307.876 69.279 309.839 69.2354 310.624V310.777C68.9306 317.69 67.7982 325.889 67.7982 325.889L61.9187 348.024C61.9187 348.024 61.5921 366.843 61.4179 370.921C61.309 373.625 59.9807 382.61 59.0879 388.323C59.8936 387.538 60.4815 386.753 60.6993 386.099C61.2655 384.376 63.2471 360.563 63.9439 354.26C64.6625 347.98 69.6492 324.014 70.346 317.646C70.5855 315.465 70.6944 313.285 70.6944 311.322C70.7162 310.101 70.7162 308.967 70.6727 308.007L70.6944 307.985Z" fill="#6C8FC2"/>
<path d="M80.4282 264.938C80.4282 264.938 80.4718 265.265 80.5807 265.832C82.3663 266.268 84.2172 266.573 84.2172 266.573C84.2172 266.573 84.1519 261.688 84.1519 261.361C84.1519 261.034 84.6963 256.346 84.6963 256.346L84.3044 255.146L83.6293 253.881C83.6293 253.881 81.8001 254.121 80.9726 253.532L80.4282 253.925C80.4282 253.925 80.8855 255.408 81.0815 255.975C81.2775 256.542 81.0815 257.196 81.0815 257.589C81.0815 257.807 80.8855 259.922 80.7331 261.841C80.5589 263.477 80.4282 264.938 80.4282 264.938Z" fill="#FAC5A8"/>
<path d="M64.401 251.286C64.401 251.286 62.746 255.451 65.4898 261.318C68.2336 267.184 70.1498 271.48 71.2822 271.349C72.4145 271.218 74.8317 271.72 77.4665 269.495C80.1014 267.271 81.4951 265.068 81.6911 262.757C81.887 260.445 79.5135 256.498 78.0545 253.096C76.5955 249.694 74.9188 247.012 72.9807 246.14C70.9991 245.246 65.86 248.43 64.401 251.286Z" fill="#FF862A"/>
<path d="M43.8228 235.607C44.28 236.021 45.3035 237.264 50.0942 238.18C53.9485 238.922 58.2384 238.616 59.7845 238.464C60.1547 238.442 60.3724 238.398 60.3724 238.398C60.3724 238.398 60.7209 234.887 60.7862 234.342C60.8515 233.797 61.6354 231.747 61.6354 231.747C61.6354 231.747 63.5735 231.071 64.009 230.351C64.4445 229.632 66.3173 225.488 66.3173 225.488C66.3173 225.488 67.319 222.588 67.3625 222.37C67.4278 222.152 68.19 217.965 68.19 217.965C68.19 217.965 68.19 217.507 68.5166 213.778C68.8651 210.071 66.6221 207.127 66.6221 207.127L61.679 210.202L51.4225 216.896C51.4225 216.896 46.8278 222.697 47.0674 225.074C47.3287 227.451 46.8496 227.8 45.8915 230.242C44.9333 232.685 43.7574 231.922 43.409 232.336C43.1259 232.772 43.3437 235.193 43.8228 235.607Z" fill="#FAC5A8"/>
<path d="M59.7847 238.464C60.1549 238.442 60.3726 238.398 60.3726 238.398C60.3726 238.398 60.721 234.887 60.7864 234.342C60.8517 233.797 61.6356 231.747 61.6356 231.747C61.6356 231.747 63.5737 231.071 64.0092 230.351C63.8785 230.439 62.4195 231.136 61.2654 231.267C60.4597 231.354 60.1984 233.601 60.1984 233.601C60.1984 233.601 59.8064 236.13 59.7847 238.464Z" fill="#F8D1BC"/>
<path d="M64.3358 219.993C64.3358 219.993 62.2889 219.448 60.7428 221.868C59.1967 224.289 57.3022 227.102 57.1715 227.451C57.0409 227.8 54.4713 228.716 54.014 228.65C53.535 228.585 49.5282 228.607 49.5282 228.607L47.0458 227.407C47.0458 227.407 45.2819 221.912 44.9988 219.731C44.7157 217.572 43.2132 209.176 45.6739 205.317C48.1345 201.457 55.7126 199.734 59.3274 200.432C62.9422 201.13 66.7094 203.637 67.7546 205.011C68.7999 206.385 68.6257 212.448 68.5603 213.298C68.495 214.149 67.6675 217.332 67.6675 217.332L66.6005 219.142L66.2521 222.174L65.2068 222.566C65.2068 222.588 65.1851 220.036 64.3358 219.993Z" fill="#4A2727"/>
<path d="M62.0276 226.862C62.0276 226.862 60.5033 226.448 60.6339 225.248C60.7646 224.049 62.18 221.04 63.5954 220.974C65.0109 220.931 62.7897 225.292 62.0276 226.862Z" fill="#F8D1BC"/>
<path d="M61.4179 223.962C61.4179 223.962 61.2002 226.797 62.0059 226.884C62.8116 226.971 63.6608 225.118 63.7262 224.66C63.8133 224.202 65.1852 221.89 64.5319 221.018C63.8786 220.146 62.2236 222.283 62.2236 222.283L61.4179 223.962Z" fill="#FFD4BD"/>
</svg>
